<?xml version="1.0" encoding="utf-8"?>
<!-- Generator: Adobe Illustrator 27.5.0, SVG Export Plug-In . SVG Version: 6.00 Build 0)  -->
<svg version="1.1" xmlns="http://www.w3.org/2000/svg" xmlns:xlink="http://www.w3.org/1999/xlink" x="0px" y="0px"
	 viewBox="0 0 750 500" style="enable-background:new 0 0 750 500;" xml:space="preserve">
<g id="BACKGROUND">
</g>
<g id="OBJECTS">
	<g>
		<g>
			<path style="fill:#CCCCCC;" d="M196.764,441.352c-1.067-1.354-1.44-3.12-1.028-4.847l16.935-70.418
				c1.608-6.676,4.926-12.603,9.62-17.195l0.568-2.936c2.988-15.484,13.486-26.3,25.527-26.3h37.411
				c12.041,0,22.538,10.816,25.53,26.3l0.568,2.938c4.694,4.592,8.011,10.517,9.617,17.196l16.935,70.412
				c0.416,1.727,0.042,3.493-1.025,4.849c-2.239,2.834-7.067,2.826-9.205-0.218l-4.797-6.806c-0.468-0.665-0.783-1.406-0.935-2.205
				l-15.539-80.479c-4.713-4.101-10.558-6.351-16.556-6.351h-46.594c-5.998,0-11.844,2.25-16.554,6.351l-15.539,80.466
				c-0.147,0.797-0.465,1.543-0.941,2.224l-4.794,6.8c-1.091,1.548-2.775,2.436-4.62,2.436
				C199.571,443.57,197.857,442.742,196.764,441.352z M217.908,367.346l-16.917,70.673c0.076,0.097,0.229,0.168,0.355,0.168
				l5.07-7.083l13.392-69.345C219.011,363.53,218.375,365.401,217.908,367.346z M327.823,431.232l4.794,6.8
				c0.11,0.155,0.171,0.155,0.221,0.155l0.373-0.426l-16.935-70.415c-0.465-1.937-1.099-3.801-1.89-5.567L327.823,431.232z
				 M248.386,325.039c-8.66,0-16.393,7.62-19.524,18.88c4.576-2.613,9.702-4.009,14.932-4.009h46.594
				c5.233,0,10.356,1.396,14.934,4.009c-3.133-11.26-10.865-18.88-19.526-18.88H248.386z"/>
		</g>
		<g>
			<path style="fill:#D4145A;" d="M225.363,253.157c1.287-9.132,9.229-15.838,18.447-15.579l23.283,0.654l23.283-0.654
				c9.218-0.259,17.159,6.448,18.447,15.579l11.171,79.237l-52.9,8.846l-52.901-8.846L225.363,253.157z"/>
		</g>
		<g>
			<path style="fill:#EF4B8E;" d="M212.406,337.451c36.069,7.519,73.302,7.519,109.371,0c2.09-0.435,3.414-2.435,2.961-4.43
				c-0.005-0.025-0.012-0.049-0.016-0.073c-0.453-1.997-2.452-3.246-4.473-2.824c-35.062,7.309-71.255,7.309-106.316,0
				c-2.02-0.422-4.021,0.828-4.473,2.824c-0.005,0.024-0.011,0.048-0.017,0.073C208.993,335.016,210.317,337.016,212.406,337.451z"
				/>
		</g>
	</g>
	<g>
		<g>
			<g>
				<g>
					<g>
						<path style="fill:#352C38;" d="M383.611,448.726c0,0,2.634,2.082,2.446,3.122c-0.189,1.041-1.396,5.412-6.314,6.036
							c-4.917,0.624-8.924-0.416-10.617-1.665c-1.693-1.249-3.951-4.995-0.94-7.909L383.611,448.726z"/>
					</g>
					<path style="fill:#1E1621;" d="M367.305,443.365c0.102-1.211,0.09-2.51-0.249-3.796c-0.282-1.074-0.35-2.847-0.339-4.633
						c0.034-3.047,0.339-6.194,0.339-6.194l0.564-0.2l12.224-0.424l2.856,6.632l0.722,1.698c0,0,0.598,3.834,1.038,7.755
						c0.259,2.286,0.463,4.584,0.463,6.194c0,4.371-6.389,5.62-12.981,4.783c-6.58-0.837-5.079-5.62-5.056-7.706
						C366.898,446.324,367.18,444.901,367.305,443.365z"/>
				</g>
				<path style="fill:#352C38;" d="M377.095,236.557l8.021-0.563c0,0,9.218,15.819,9.782,21.855
					c0.564,6.036,0.376,4.371-1.317,12.28c-1.693,7.909-9.97,163.403-9.97,163.403s-5.081,4.257-7.632,4.175
					c-0.091-0.003-0.186,0.002-0.27-0.012c-2.445-0.416-10.535-3.954-10.535-3.954l-4.703-146.128V237.66L377.095,236.557z"/>
				<path style="fill:#4F4454;" d="M373.592,439.54c0.811-0.435,1.848-0.328,2.747-0.309c0.897,0.019,1.761,0.102,2.559,0.537
					c0.033,0.018,0.02,0.06-0.009,0.072c-0.826,0.323-1.673,0.356-2.55,0.411c-0.86,0.053-1.814,0.307-2.647,0.061
					C373.357,440.212,373.263,439.716,373.592,439.54z"/>
				<path style="fill:#4F4454;" d="M372.409,441.438c0.994-0.382,2.228-0.24,3.282-0.214c0.943,0.023,1.941,0.017,2.809,0.411
					c0.156,0.071,0.084,0.277-0.042,0.327c-0.93,0.365-2.005,0.303-2.993,0.336c-0.998,0.034-2.089,0.222-3.055-0.06
					C371.99,442.116,372.04,441.579,372.409,441.438z"/>
			</g>
			<g>
				<g>
					<g>
						<path style="fill:#352C38;" d="M335.983,448.726c0,0-2.634,2.082-2.446,3.122c0.188,1.041,1.396,5.412,6.313,6.036
							c4.918,0.624,8.925-0.416,10.617-1.665c1.693-1.249,3.951-4.995,0.941-7.909L335.983,448.726z"/>
					</g>
					<path style="fill:#1E1621;" d="M335.132,444.202c0.44-3.921,1.038-7.755,1.038-7.755l0.722-1.698l2.856-6.632l12.224,0.424
						l0.564,0.2c0,0,0.305,3.147,0.339,6.194c0.012,1.786-0.056,3.559-0.339,4.633c-0.339,1.287-0.35,2.585-0.248,3.796
						c0.124,1.536,0.406,2.96,0.418,4.108c0.022,2.086,1.524,6.868-5.057,7.706c-6.592,0.836-12.98-0.412-12.98-4.783
						C334.669,448.785,334.872,446.487,335.132,444.202z"/>
				</g>
				<path style="fill:#352C38;" d="M326.046,257.849c0.564-6.036,9.782-21.855,9.782-21.855l8.02,0.563l16.623,1.103v49.953
					l-4.703,146.128c0,0-8.089,3.538-10.534,3.954c-0.084,0.015-0.178,0.009-0.269,0.012c-2.551,0.083-7.632-4.175-7.632-4.175
					s-8.278-155.494-9.97-163.403C325.669,262.22,325.482,263.885,326.046,257.849z"/>
				<path style="fill:#4F4454;" d="M339.846,439.527c0.65-0.989,1.996-0.665,3.026-0.557c1.444,0.151,2.92,0.343,4.255,0.941
					c0.332,0.149,0.151,0.661-0.179,0.66c-1.2-0.005-2.397-0.231-3.592-0.33c-1.046-0.086-2.083,0.056-3.107-0.015
					C339.918,440.204,339.639,439.842,339.846,439.527z"/>
				<path style="fill:#4F4454;" d="M341.667,442.808c1.499-0.028,3.225,0.035,4.679,0.418c0.292,0.077,0.329,0.576,0,0.628
					c-1.486,0.236-3.19,0.138-4.679-0.037C341.039,443.743,341.001,442.821,341.667,442.808z"/>
			</g>
			<path style="fill:#1E1621;" d="M390.593,256.482c-1.425,4.85-3.316,9.599-5.983,13.907c-1.868,3.017-4.133,5.647-6.603,8.175
				c-0.94,0.962-2.023,1.847-3.318,2.213c-3.088,0.873-5.32-2.322-6.843-4.491c-3.563-5.072-6.317-10.579-9.255-16.019
				c-0.127-0.235-0.539-0.326-0.719-0.093c-2.501,3.231-3.582,7.205-5.79,10.639c-1.652,2.568-3.987,5.052-6.684,6.525
				c-2.024,1.105-4.402,0.386-6.187-1.075c-2.443-1.998-3.956-4.523-5.078-6.713c-2.242-4.374-4.653-8.993-6.358-13.604
				c-1.466-3.967-0.24-3.616,1.426-7.249c1.915-4.177,4.077-8.25,6.36-12.236c0.089-0.156,0.179-0.312,0.269-0.467l8.02,0.563
				l16.623,1.103l16.623-1.103l8.021-0.563c0,0,4.415,7.58,7.321,14.248C391.75,252.299,391.205,254.397,390.593,256.482z"/>
		</g>
		<g>
			<path style="fill:#FF9B73;stroke:#EF714B;stroke-width:0.7959;stroke-miterlimit:10;" d="M361.263,146.12L361.263,146.12
				c4.902-0.447,8.549-4.728,8.211-9.638l-1.335-19.407l-17.031,1.544l0.28,18.621C351.467,142.51,356.014,146.599,361.263,146.12z"
				/>
			<path style="opacity:0.3;fill:#FF9B73;" d="M356.943,132.521c-1.855-0.397-3.825-1.55-5.645-2.988l-0.19-10.915l17.031-1.544
				l0.695,7.67C367.711,130.299,362.713,133.755,356.943,132.521z"/>
		</g>
		<g>
			<g>
				<rect x="341.138" y="141.492" style="fill:#FFFFFF;" width="33.858" height="68.069"/>
			</g>
			<polygon style="fill:#D4145A;" points="362.499,148.483 365.551,141.915 360.096,141.707 354.64,141.915 357.693,148.484 
				353.888,184.168 360.096,209.977 366.304,184.168 			"/>
			<g>
				<path style="fill:#352C38;" d="M374.957,136.92l21.634,10.199c0,0-3.387,28.099-3.951,35.176
					c-0.564,7.076-3.951,24.768-3.198,37.048c0.752,12.28,3.394,27.06,3.394,27.06s-14.493,33.509-19.949,30.178
					c-5.455-3.33-14.861-27.89-15.613-45.374c-0.753-17.484,2.069-23.831,2.069-23.831L374.957,136.92z"/>
			</g>
			<g>
				<path style="fill:#352C38;" d="M344.039,136.504l-21.634,10.199c0,0,3.386,28.099,3.951,35.175
					c0.565,7.077,3.951,24.769,3.199,37.049c-0.753,12.28-3.132,27.058-3.132,27.058s13.451,29.396,18.906,26.065
					c5.455-3.33,15.641-23.776,16.393-41.26c0.752-17.484-2.07-23.831-2.07-23.831L344.039,136.504z"/>
			</g>
			<g>
				<g>
					<rect x="355.839" y="210.549" style="fill:#202551;" width="3.598" height="1.093"/>
				</g>
				<g>
					<path style="fill:#1E1621;" d="M356.898,211.642c0,1.149,0.842,2.082,1.881,2.082c1.039,0,1.881-0.932,1.881-2.082
						c0-1.15-0.842-2.081-1.881-2.081C357.74,209.561,356.898,210.492,356.898,211.642z"/>
				</g>
			</g>
			<g>
				<rect x="355.134" y="231.701" style="fill:#1E1621;" width="4.444" height="1.249"/>
			</g>
			<g>
				<path style="fill:#FFFFFF;" d="M359.344,141.707c0,0,2.445-0.417,5.079,1.873c2.634,2.289,4.703,4.996,4.703,4.996
					s3.198-10.615,3.01-12.28c-0.188-1.666-3.041-8.168-3.041-8.168s0.784,5.045-3.732,8.376S359.344,141.707,359.344,141.707z"/>
			</g>
			<g>
				<path style="fill:#FFFFFF;" d="M360.9,141.847c0,0-2.309,0.068-4.943,2.358c-2.634,2.289-4.703,4.996-4.703,4.996
					s-3.198-10.615-3.01-12.28c0.188-1.665,2.502-8.306,2.502-8.306s-0.244,5.184,4.271,8.514
					C359.531,140.458,360.9,141.847,360.9,141.847z"/>
			</g>
			<g>
				<path style="fill:#534A56;" d="M378.908,137.545l-8.372-6.83c0,0,1.762,6.317,0.782,9.99
					c-0.98,3.673-11.491,65.467-11.491,65.467s6.681-9.516,12.316-25.126c5.636-15.611,10.715-33.927,10.715-33.927l-5.079-2.075
					l2.822-1.671L378.908,137.545z"/>
			</g>
			<g>
				<path style="fill:#534A56;" d="M342.036,137.545l7.901-7.077c0,0-1.291,6.563-0.312,10.237
					c0.979,3.673,10.568,67.919,10.568,67.919s-5.758-11.968-11.393-27.578c-5.635-15.611-10.715-33.927-10.715-33.927l5.079-2.075
					l-2.822-1.671L342.036,137.545z"/>
			</g>
		</g>
		<g>
			<g>
				<path style="fill:#FF9B73;stroke:#EF714B;stroke-width:0.7959;stroke-miterlimit:10;" d="M327.434,248.992l2.186,4.902
					l-0.94,11.864c0,0-6.96-8.326-6.96-10.616C321.719,252.854,327.434,248.992,327.434,248.992z"/>
			</g>
			<g>
				<path style="fill:#C0F0FF;" d="M326.798,247.234l1.129,3.122c0,0-4.331,0.639-5.523,4.579c-1.191,3.94-0.497,4.995-0.497,4.995
					l-1.881-3.122C320.026,256.808,320.967,246.193,326.798,247.234z"/>
			</g>
			<g>
				<path style="fill:#3C333F;" d="M320.402,148.368c0,0,0.618-3.122,2.002-1.665c1.385,1.457,9.473,32.261,6.275,45.582
					c-3.198,13.321-5.644,16.651-5.455,26.434c0.188,9.783,5.643,30.18,5.643,30.18s-6.772,1.665-7.149,4.995
					c-0.376,3.33-0.753,7.701-0.753,7.701s-18.06-30.389-15.614-49.745C307.799,192.493,320.402,148.368,320.402,148.368z"/>
			</g>
		</g>
		<g>
			<g>
				<g>
					<path style="fill:#FF9B73;stroke:#EF714B;stroke-width:0.7959;stroke-miterlimit:10;" d="M391.455,248.992l-2.186,4.902
						l0.941,11.864c0,0,6.96-8.326,6.96-10.616C397.17,252.854,391.455,248.992,391.455,248.992z"/>
				</g>
				<g>
					<path style="fill:#C0F0FF;" d="M392.091,247.234l-1.129,3.122c0,0,4.331,0.639,5.522,4.579c1.192,3.94,0.498,4.995,0.498,4.995
						l1.881-3.122C398.863,256.808,397.923,246.193,392.091,247.234z"/>
				</g>
			</g>
			<g>
				<path style="fill:#3C333F;" d="M398.487,148.368c0,0-0.618-3.122-2.003-1.665c-1.383,1.457-9.472,32.261-6.274,45.582
					c3.198,13.321,5.643,16.651,5.455,26.434c-0.188,9.783-5.644,30.18-5.644,30.18s6.773,1.665,7.149,4.995
					c0.377,3.33,0.753,7.701,0.753,7.701s18.059-30.389,15.614-49.745C411.091,192.493,398.487,148.368,398.487,148.368z"/>
			</g>
		</g>
		<g>
			<g>
				<g>
					<path style="fill:#FF9B73;stroke:#EF714B;stroke-width:1.0395;stroke-miterlimit:10;" d="M374.512,98.554
						c0.895,0.233,1.508,1.299,1.73,2.344c0.574,2.694,0.013,5.61-1.518,7.899c-0.249,0.373-0.532,0.737-0.914,0.972
						c-2.628,1.616-2.537-6.624-2.409-7.915C371.542,100.429,372.673,98.075,374.512,98.554z"/>
					
						<path style="fill:none;stroke:#EF714B;stroke-width:1.0395;stroke-linecap:round;stroke-linejoin:round;stroke-miterlimit:10;" d="
						M375.001,101.808c-0.097-0.5-0.422-1.236-1.058-1.055c-0.342,0.097-0.502,0.485-0.584,0.831
						c-0.125,0.523-0.214,1.059-0.245,1.596c-0.008,0.144-0.095,0.699,0.019,0.802c0.208,0.19,0.49,0.009,0.671,0.322
						c0.081,0.14,0.107,0.305,0.115,0.466c0.039,0.73-0.263,1.471-0.801,1.965"/>
				</g>
				<g>
					<path style="fill:#FF9B73;stroke:#EF714B;stroke-width:1.0395;stroke-miterlimit:10;" d="M338.613,103.255
						c-0.819,0.432-1.172,1.609-1.151,2.677c0.056,2.754,1.266,5.466,3.279,7.345c0.328,0.306,0.686,0.596,1.112,0.738
						c2.927,0.974,0.96-7.028,0.541-8.256C341.932,104.404,340.293,102.369,338.613,103.255z"/>
					
						<path style="fill:none;stroke:#EF714B;stroke-width:1.0395;stroke-linecap:round;stroke-linejoin:round;stroke-miterlimit:10;" d="
						M338.975,106.369c0.017-0.199,0.036-0.401,0.118-0.583c0.082-0.181,0.242-0.34,0.44-0.366c0.369-0.048,0.625,0.35,0.764,0.694
						c0.362,0.897,0.605,1.843,0.719,2.804c-0.073-0.097-0.233-0.087-0.325-0.007c-0.092,0.08-0.129,0.204-0.15,0.324
						c-0.16,0.93,0.575,1.917,1.512,2.03"/>
				</g>
				<path style="fill:#FF9B73;stroke:#EF714B;stroke-width:1.0252;stroke-miterlimit:10;" d="M341.357,104.428
					c-0.173-2.497-0.106-5.02,0.212-7.385c0.504-3.742,2.276-7.341,5.433-9.579c3.482-2.469,7.967-3.39,12.178-2.987
					c3.111,0.298,6.231,1.593,8.362,3.93c2.274,2.494,3.046,6.585,3.779,9.778c1.084,4.721,1.381,9.647,0.811,14.459
					c-0.467,3.937-1.614,7.942-3.901,11.225c-1.807,2.594-4.433,4.696-7.635,5.149c-0.505,0.071-1.016,0.102-1.527,0.093
					c-3.61-0.063-6.848-2.085-9.312-4.593c-3.672-3.737-6.154-8.744-7.422-13.799C341.835,108.721,341.507,106.584,341.357,104.428z
					"/>
				<g>
					<g>
						<path style="fill:#39222F;" d="M371.876,100.7c0.059,0.176,0.101,0.341,0.101,0.474
							C371.923,101.021,371.895,100.861,371.876,100.7z"/>
						<path style="fill:#39222F;" d="M342.501,99.149c-0.516,2.956-0.368,5.881-0.374,8.854c-0.42-1.086-0.694-2.229-0.812-3.387
							c-0.052-0.511-0.087-1.059-0.402-1.464c-0.275-0.353-0.933-0.633-1.38-0.633c-0.701,0-0.999,0.196-0.999,0.196
							s-0.568-1.784-0.741-2.358c-0.344-1.14-0.704-2.309-0.784-3.504c-0.026-0.386-0.055-0.771-0.083-1.157
							c-0.009-0.082-0.023-0.162-0.032-0.244l0.016,0.027c-0.184-2.499-0.379-4.983-0.238-7.507
							c0.219-3.904,1.214-7.721,3.743-10.798c6.238-7.59,19.143-8.089,26.153-1.122c0.82,0.815,1.57,1.811,2.103,2.836
							c0.269,0.518,0.258,1.353,0.528,1.788c0.429,0.691,1.386,0.11,2.144,0.384c0.852,0.309,1.501,1.035,1.909,1.844
							c0.408,0.809,0.605,1.706,0.798,2.591c0.908,4.158,1.794,8.619,0.195,12.563c-0.545-0.013-1.231,0.185-1.614,0.597
							c-0.384,0.412-0.428,1.165-0.505,1.712c-0.163,1.161-0.36,2.718-0.11,3.873c-0.465-2.153-0.973-4.395-2.372-6.097
							c-0.895-1.088-2.096-1.878-3.089-2.878c-1.503-1.513-2.506-3.516-2.817-5.626c-1.329,0.899-2.712,1.501-4.13,2.201
							c-1.433,0.708-2.925,1.298-4.453,1.767c-3.651,1.119-7.789,1.694-11.582,1.301C343.11,96.294,342.752,97.712,342.501,99.149z"
							/>
					</g>
				</g>
				<g>
					<path style="fill:#39222F;" d="M366.174,117.023c-1.681-2.215-4.623-3.397-7.369-2.96c-2.746,0.437-4.968,1.818-5.879,4.444
						c-0.29,0.015-0.732,0.031-1.219-0.076c-2.793-0.257-4.654-1.757-6.412-3.944c-1.758-2.186-3.008-6.342-3.66-9.35
						c-0.254,3.479,0.992,12.627,3.934,16.924c2.988,4.363,6.975,8.565,12.235,9.1c4.784,0.487,9.693-2.073,12.217-6.166
						c2.167-3.513,2.612-7.787,2.985-11.897c0.198-2.18,0.37-4.379,0.223-6.568c-0.051-0.77-0.652-4.951-1.543-5.518
						c-0.29-0.185,0.015,3.377-0.004,4.03c-0.056,1.983-0.896,4.753-1.667,6.581C369.15,113.674,367.849,115.548,366.174,117.023z"
						/>
					<path style="fill:#FF9B73;" d="M359.06,116.764c-1.647,0.979-3.442,1.996-4.121,2.223c1.481,0.689,3.534,0.928,5.207,0.663
						c0.689-0.109,3.313-0.902,3.56-1.994C363.731,117.544,359.759,117.099,359.06,116.764z"/>
				</g>
			</g>
			<g>
				<path style="fill:none;stroke:#EF714B;stroke-width:1.0395;stroke-linecap:round;stroke-miterlimit:10;" d="M357.971,113.386
					c-0.739-0.176-1.538-0.391-1.999-0.995c-0.434-0.57-0.456-1.343-0.459-2.06c-0.012-2.731-0.024-5.463-0.036-8.194"/>
				<g>
					<path style="fill:#39222F;" d="M365.333,106.676c-1.88-0.022-1.848-2.945,0.035-2.922
						C367.249,103.776,367.217,106.699,365.333,106.676L365.333,106.676z"/>
				</g>
				<g>
					<path style="fill:#39222F;" d="M349.028,108.134c-1.88-0.031-1.836-2.953,0.048-2.922
						C350.956,105.243,350.912,108.165,349.028,108.134L349.028,108.134z"/>
				</g>
				<g>
					<g>
						<path style="fill:#37212E;" d="M369.735,98.805c-1.303-3.044-6.642-2.154-8.819-0.835c-1.49,0.903-0.129,3.249,1.368,2.341
							c1.229-0.745,2.489-1.218,3.944-1.221c1.113-0.002,2.199,0.389,3.307,0.206C369.771,99.257,369.81,98.98,369.735,98.805
							L369.735,98.805z"/>
					</g>
				</g>
				<g>
					<g>
						<path style="fill:#37212E;" d="M343.012,102.016c1.457-0.191,2.824-0.764,4.291-0.884c1.451-0.119,2.921,0.634,4.295,0.253
							c0.637-0.177,1.023-0.987,0.639-1.571c-1.026-1.56-3.493-1.603-5.189-1.423c-1.853,0.197-3.691,0.847-4.679,2.504
							C342.108,101.334,342.434,102.092,343.012,102.016L343.012,102.016z"/>
					</g>
				</g>
			</g>
		</g>
	</g>
	<g>
		<g>
			<g>
				<path style="fill:#CCCCCC;" d="M403.213,441.349c-1.067-1.354-1.441-3.12-1.026-4.844l16.933-70.418
					c1.609-6.676,4.926-12.603,9.62-17.195l0.567-2.936c2.989-15.484,13.487-26.3,25.527-26.3h37.413
					c12.041,0,22.539,10.816,25.528,26.3l0.568,2.936c4.694,4.595,8.011,10.519,9.617,17.198l16.935,70.412
					c0.415,1.727,0.042,3.493-1.025,4.849c-2.237,2.834-7.068,2.826-9.205-0.218l-4.805-6.816c-0.462-0.668-0.775-1.406-0.927-2.195
					l-15.54-80.479c-4.71-4.101-10.555-6.351-16.553-6.351h-46.596c-5.998,0-11.841,2.25-16.551,6.351l-15.542,80.482
					c-0.152,0.794-0.468,1.535-0.941,2.208l-4.792,6.8c-1.091,1.548-2.776,2.436-4.621,2.436
					C406.023,443.57,404.309,442.739,403.213,441.349z M424.356,367.346l-16.914,70.673c0.074,0.097,0.229,0.168,0.355,0.168
					l5.07-7.083l13.389-69.348C425.46,363.53,424.824,365.398,424.356,367.346z M534.271,431.232l4.794,6.8
					c0.11,0.155,0.171,0.155,0.221,0.155l0.373-0.426l-16.935-70.415c-0.465-1.937-1.099-3.801-1.889-5.567L534.271,431.232z
					 M454.835,325.039c-8.663,0-16.393,7.62-19.523,18.88c4.576-2.613,9.701-4.009,14.932-4.009h46.596
					c5.231,0,10.356,1.396,14.935,4.009c-3.133-11.26-10.863-18.88-19.527-18.88H454.835z"/>
			</g>
			<g>
				<path style="fill:#D4145A;" d="M431.812,253.157c1.287-9.132,9.228-15.838,18.447-15.579l23.282,0.654l23.283-0.654
					c9.218-0.259,17.159,6.448,18.447,15.579l11.17,79.237l-52.9,8.846l-52.9-8.846L431.812,253.157z"/>
			</g>
			<g>
				<path style="fill:#EF4B8E;" d="M418.856,337.451c36.069,7.519,73.302,7.519,109.371,0c2.09-0.435,3.414-2.435,2.962-4.43
					c-0.006-0.025-0.011-0.049-0.017-0.073c-0.452-1.997-2.452-3.246-4.472-2.824c-35.061,7.309-71.255,7.309-106.316,0
					c-2.02-0.422-4.021,0.828-4.473,2.824c-0.005,0.024-0.011,0.048-0.016,0.073C415.443,335.016,416.766,337.016,418.856,337.451z"
					/>
			</g>
		</g>
	</g>
	<g>
		<g>
			<g>
				
					<path style="fill:#FF9B73;stroke:#EF714B;stroke-width:0.9744;stroke-linecap:round;stroke-linejoin:round;stroke-miterlimit:10;" d="
					M471.913,179.389l3.246,26.896c0,0-5.917,4.642-10.417,5.035c-4.501,0.392-10.07-5.208-10.07-5.208l3.82-27.431L471.913,179.389
					z"/>
			</g>
			<path style="fill:#EF714B;" d="M456.163,205.215c3.262-2.108,5.794-5.23,7.952-8.411c2.287-3.37,4.125-6.88,5.553-10.699
				c0.674-1.803,1.275-3.634,1.976-5.427c0.201-0.513,0.448-1.013,0.702-1.512c-0.077-0.151-0.231-0.255-0.408-0.265l-13.422-0.708
				c-0.245,0.001-0.474,0.169-0.508,0.42l-3.819,27.431c-0.013,0.094,0.01,0.184,0.049,0.268
				C454.895,205.974,455.541,205.617,456.163,205.215z"/>
		</g>
		<g>
			<g>
				<path style="fill:#1E1621;" d="M484.257,316.564c0,0,29.036-3.879,32.181,1.572c3.144,5.451,5.765,10.587,4.402,13.208
					c-1.362,2.62-19.491,8.982-22.223,9.12c-2.732,0.138-19.399,4.329-22.488,2.689c-3.089-1.641-8.435-13.59-8.435-13.59
					L484.257,316.564z"/>
			</g>
			<g>
				<g>
					<path style="fill:#141542;" d="M524.842,434.481c-2.667,0.443-5.147-2.415-6.957-5.372c0.014,0.28,0.018,0.573,0.063,0.816
						c3.059,16.664,12.393,17.711,13.997,17.462c6.851-1.066,4.462-20.294,3.208-20.487c0,0-0.444-1.656-1.09-3.626
						C533.084,430.574,529.156,433.764,524.842,434.481z"/>
				</g>
				<g>
					
						<path style="fill:#FF9B73;stroke:#EF714B;stroke-width:0.9744;stroke-linecap:round;stroke-linejoin:round;stroke-miterlimit:10;" d="
						M473.973,326.782c-1.772,2.063-3.831,6.299-0.227,10.876c3.603,4.577,4.246,2.165,5.657,6.244
						c1.412,4.079,2.647,15.604,5.158,20.406c3.851,7.369,7.8,14.688,11.71,22.026c4.816,9.037,9.634,18.073,14.454,27.108
						c2.197,4.118,3.556,7.545,5.971,12.501c1.814,3.724,3.276,7.295,7.035,9.158c3.82,1.893,7.195-1.232,8.015-5.035
						c0.475-2.203,0.369-5.184-0.501-7.295c-0.478-1.159-1.563-1.914-2.377-2.948c-1.061-1.349-3.223-3.669-3.58-5.399
						c-0.003-0.014-0.24-1.163-0.464-2.25c-0.226-1.093-3.804-4.651-3.804-4.651s-9.002-40.894-12.761-47.149
						c-3.76-6.255-6.328-8.575-7.247-15.796c-0.919-7.22-10.128-21.472-12.765-23.208
						C485.608,319.633,480.714,318.932,473.973,326.782z"/>
				</g>
			</g>
			<g>
				<g>
					<path style="fill:#141542;" d="M542.962,432.453c1.952-1.649,2.259-5.05,2.081-8.032c0.12,0.171,0.252,0.341,0.335,0.512
						c5.681,11.708,0.048,18.961-1.119,19.962c-4.98,4.276-12.283-8.421-11.55-9.425c0,0-0.473-1.264-0.958-2.85
						C535.759,436.095,539.805,435.118,542.962,432.453z"/>
				</g>
				<g>
					
						<path style="fill:#FF9B73;stroke:#EF714B;stroke-width:0.9744;stroke-linecap:round;stroke-linejoin:round;stroke-miterlimit:10;" d="
						M507.105,318.576c2.704,0.294,7.103,1.978,7.602,7.782c0.499,5.804-1.619,4.483,0.14,8.425s8.737,13.197,10.188,18.418
						c2.47,8.886,4.822,17.806,7.221,26.712c1.594,5.918,3.187,11.837,4.78,17.755c1.108,4.119,1.987,8.423,3.618,12.337
						c1.749,4.196,2.529,9.054,3.705,13.45c0.84,3.137,1.611,6.736-0.208,9.425c-1.921,2.839-6.299,3.303-9.165,1.422
						c-3.168-2.079-3.734-5.5-4.139-8.958c-0.237-2.023-0.111-5.983-1.273-7.727c0,0-0.616-1.007-1.199-1.959
						c-0.584-0.952-0.404-5.995-0.404-5.995s-21.39-35.998-22.922-43.133c-1.533-7.135-1.245-10.584-5.511-16.482
						c-4.266-5.897-7.289-22.593-6.551-25.664C493.725,321.314,496.818,317.456,507.105,318.576z"/>
				</g>
			</g>
			<g>
				<path style="fill:#352C38;" d="M450.565,304.294l53.18-20.015c0,0,0.216-0.005,0.605,0.015
					c2.588,0.139,12.822,1.422,17.939,12.936c5.888,13.246-1.472,33.851-1.472,33.851s-4.26-12.362-10.302-12.952
					c-6.042-0.59-22.182,2.167-27.375,5.304c-5.193,3.137-15.601,8.825-9.42,16.773c0.955,1.227,1.739,2.177,2.409,2.947
					l-10.455-7.068C465.675,336.084,447.13,333.141,450.565,304.294z"/>
			</g>
			<g style="opacity:0.3;">
				<path style="fill:#352C38;" d="M488.41,307.138c-12.232,4.34-25.608,3.046-38.182,1.184c0.068-1.288,0.169-2.618,0.336-4.028
					l53.18-20.015c0,0,0.217-0.006,0.605,0.015c1.629,0.087,6.286,0.63,10.789,3.888
					C508.314,296.423,499.248,303.292,488.41,307.138z"/>
			</g>
		</g>
		<g>
			<path style="fill:#1A3751;" d="M463.32,274.074c0,1.301,1.055,2.355,2.355,2.355c1.301,0,2.355-1.055,2.355-2.355
				c0-1.3-1.054-2.355-2.355-2.355C464.374,271.719,463.32,272.774,463.32,274.074z"/>
		</g>
		<g>
			<g>
				<path style="fill:#3C333F;" d="M437.505,204.125c0,0-6.709-0.422-7.268,5.728c-0.559,6.149-11.186,69.324-11.186,69.324h10.906
					c0,0,14.281-28.378,14.815-45.43C445.306,216.696,437.505,204.125,437.505,204.125z"/>
			</g>
			<g>
				<polygon style="fill:#FFBBD7;" points="482.37,210.471 481.373,210.251 472.936,208.385 464.694,208.531 454.87,209.428 
					446.836,217.609 459.308,271.719 477.129,265.619 482.789,210.901 				"/>
			</g>
			<g>
				<polygon style="fill:#FFF9FB;" points="466.263,209.478 466.656,255.674 464.215,255.674 464.215,208.36 				"/>
			</g>
			<g>
				<path style="fill:#FFF9FB;" d="M474.249,194.503c0,0,1.238,7.944-3.472,10.496c-4.71,2.551-6.083,3.532-6.083,3.532l4.906,8.242
					l9.223-8.046L474.249,194.503z"/>
			</g>
			<g>
				<path style="fill:#FFF9FB;" d="M455.497,196.426c0,0-1.597,6.021,3.113,8.573c4.71,2.551,6.084,3.532,6.084,3.532l-4.906,8.242
					l-9.223-8.046L455.497,196.426z"/>
			</g>
			<g>
				<path style="fill:#352C38;" d="M446.051,203.037l-10.731,1.392c0,0,4.004,40.243,4.452,45.508
					c0.432,5.079,5.593,28.143,8.046,27.865l-0.982,29.24h19.82v-38.356L446.051,203.037z"/>
			</g>
			<g>
				<path style="fill:#534A56;" d="M460.282,241.672l-8.046-44.719l-0.466,0.259l-8.364,4.646l-2.159,8.831h3.728l-1.766,4.121
					c0,0,3.532,25.315,9.419,33.164c5.888,7.849,14.71,21.782,14.71,21.782S463.226,249.498,460.282,241.672z"/>
			</g>
			<g>
				<path style="fill:#352C38;" d="M482.355,203.037l17.486,9.531l-5.319,26.773l-1.962,29.827l22.174,16.288
					c0,0-16.484,15.699-34.734,18.642c-18.25,2.944-17.064,1.766-17.064,1.766l-0.597-35.715L482.355,203.037z"/>
			</g>
			<g>
				<path style="fill:#534A56;" d="M469.992,242.064l8.045-44.718l0.467,0.259l8.364,4.646l2.159,8.831h-3.729l1.766,4.121
					c0,0-3.532,25.315-9.42,33.164c-5.887,7.85-14.709,21.782-14.709,21.782S467.048,249.89,469.992,242.064z"/>
			</g>
			<g>
				<path style="fill:#534A56;" d="M463.712,285.456c0,1.409,1.142,2.551,2.551,2.551c1.409,0,2.551-1.142,2.551-2.551
					c0-1.409-1.142-2.551-2.551-2.551C464.855,282.905,463.712,284.047,463.712,285.456z"/>
			</g>
		</g>
		<g>
			<g>
				<g>
					<g>
						<g>
							<g>
								<g>
									<g>
										<path style="fill:#168CDB;" d="M434.628,264.129c-0.184-0.316-0.367-0.63-0.551-0.946
											c-0.169-0.289-0.748-0.281-1.294,0.02c-0.383,0.212-0.765,0.425-1.147,0.638c0.405,0.696,0.811,1.391,1.216,2.087
											c0.374-0.227,0.748-0.455,1.121-0.683C434.504,264.919,434.797,264.418,434.628,264.129z"/>
									</g>
								</g>
								<g>
									<g>
										<path style="fill:#99C9D6;" d="M403.17,281.842c0,0-0.151-0.259,0.328-0.542c0.478-0.282,1.276-0.753,1.276-0.753
											c0.013,0.113,0.025,0.226,0.037,0.339C404.263,281.204,403.716,281.523,403.17,281.842z"/>
									</g>
								</g>
								<g>
									<g>
										<path style="fill:#99C9D6;" d="M403.17,281.842c0,0,0.151,0.259,0.633-0.018c0.482-0.277,1.284-0.739,1.284-0.739
											c-0.092-0.066-0.184-0.133-0.277-0.199C404.263,281.204,403.716,281.523,403.17,281.842z"/>
									</g>
								</g>
								<g>
									<g>
										<g>
											<path style="fill:#E83A28;" d="M432.78,266.446c0.869-0.771,0.781-1.56,0.662-1.946
												c-0.047-0.152-0.099-0.241-0.099-0.241l-28.753,16.755c0.005,0.004-0.153,0.386,0.945,0.15
												c0.579-0.127,0.553,0.134,2.046-0.486c1.774-0.735,8.331-4.234,12.019-6.178c0.47-0.248,1.029-0.553,1.644-0.898
												c0.42-0.236,0.864-0.489,1.328-0.758C426.711,270.472,432.187,266.972,432.78,266.446z"/>
										</g>
									</g>
									<g>
										<g>
											<path style="fill:#FF7364;" d="M404.59,281.014l28.753-16.755c0,0-0.186-0.319-0.594-0.536
												c-0.353-0.188-0.877-0.296-1.586-0.051c-0.75,0.255-6.495,3.294-10.6,5.726c-0.462,0.271-0.902,0.533-1.315,0.781
												c-0.603,0.366-1.144,0.701-1.591,0.988c-3.509,2.25-9.786,6.23-11.301,7.41c-2.282,1.78-1.825,1.941-1.875,2.234
												C404.45,280.992,404.589,281.012,404.59,281.014z"/>
										</g>
									</g>
								</g>
							</g>
						</g>
						<g>
							<g>
								<path style="fill:#99C9D6;" d="M422.723,272.215c0.825-0.549,2.476-1.164,2.534-1.133c0.006,0.003,0.392-0.571,0.397-0.565
									c0.173,0.206-0.496,1.2-0.938,1.415l-1.422,0.693c-0.235,0.115,6.483-2.994,6.499-3.881c0.008-0.386-0.47-0.025-0.525-0.18
									c-0.071-0.201,0.035-0.661,0.035-0.661l3.041-1.593c0,0,0.997-0.267,0.915-0.133c-0.082,0.134-0.271,1.87-6.711,5.475
									c-1.901,1.064-1.989,0.975-2.562,1.224c-0.375,0.163-1.246,0.123-1.286-0.108
									C422.702,272.769,422.449,272.398,422.723,272.215z"/>
							</g>
						</g>
						<g>
							<g>
								<path style="fill:#CAEDEA;" d="M422.58,272.597c-0.033-0.184,0.132-0.433,0.406-0.615c0.825-0.549,2.551-1.598,2.609-1.567
									c0.006,0.003,0.011,0.008,0.017,0.015c0.174,0.206-0.116,0.62-0.557,0.835l-1.422,0.693
									c-0.235,0.115-0.389,0.323-0.34,0.458l0.001,0.002c0,0,6.582-3.261,6.598-4.148c0.017-0.887-0.723-0.164-0.587-0.366
									c0.226-0.334,3.378-2.26,3.378-2.26s0.66,0.4,0.578,0.534c-0.082,0.134-2.227,2.679-6.374,4.808
									c-1.932,0.992-2.985,1.49-3.558,1.739c-0.375,0.162-0.708,0.111-0.748-0.12L422.58,272.597z"/>
							</g>
						</g>
					</g>
					<g>
						<g>
							<path style="fill:#FF5027;" d="M433.442,264.5c-0.047-0.152-0.099-0.241-0.099-0.241s-0.186-0.319-0.594-0.536
								c-4.762,2.424-14.081,7.86-17.725,10.056c-2.649,1.596-8.506,5.452-10.543,7.033c-0.032,0.181,0.107,0.2,0.107,0.2
								c0.007,0.007-0.151,0.389,0.947,0.153c3.344-1.672,11.081-5.83,13.958-7.451C421.608,272.52,429.535,267.382,433.442,264.5z"
								/>
						</g>
					</g>
					<g>
						<g>
							<path style="fill:#CAEDEA;" d="M420.564,269.397c-0.022,0.754,0.147,1.44,0.487,2.024c0.341,0.585,0.854,1.07,1.521,1.423
								c-0.465,0.269-0.909,0.522-1.328,0.758c-0.662-0.351-1.171-0.834-1.509-1.414c-0.338-0.58-0.507-1.261-0.486-2.01
								C419.687,269.917,420.125,269.657,420.564,269.397z"/>
						</g>
					</g>
					<g>
						<g>
							<path style="fill:#CAEDEA;" d="M407.581,280.678c-0.209-0.161-0.395-0.338-0.552-0.531c-0.102-0.125-0.194-0.256-0.275-0.395
								c-0.205-0.352-0.338-0.744-0.397-1.176c-3.684,2.872-1.768,2.428-1.766,2.437c0,0-0.012,0.035-0.003,0.072
								C404.621,281.259,404.072,282.133,407.581,280.678z"/>
						</g>
					</g>
					<g>
						<g>
							<path style="fill:#99C9D6;" d="M407.581,280.678c-0.209-0.161-0.395-0.338-0.552-0.531c-0.583,0.281-0.812,0.346-1.523,0.694
								c-0.448,0.218-0.452,0.112-0.919,0.245C404.621,281.259,404.072,282.133,407.581,280.678z"/>
						</g>
					</g>
				</g>
			</g>
			<g>
				<g>
					<g>
						
							<path style="fill:#FF9B73;stroke:#EF714B;stroke-width:0.9744;stroke-linecap:round;stroke-linejoin:round;stroke-miterlimit:10;" d="
							M428.001,270.354c0,0-8.525-1.881-10.885-4.889c-2.359-3.008-2.915,1.504-1.509,3.009c1.406,1.504,7.8,6.394,7.8,6.394
							L428.001,270.354z"/>
					</g>
					<g>
						
							<path style="fill:#FF9B73;stroke:#EF714B;stroke-width:0.9744;stroke-linecap:round;stroke-linejoin:round;stroke-miterlimit:10;" d="
							M438.135,270.661l-17.239-2.187c0,0-1.307,0.798-3.056,1.909c-4.132,2.627-10.727,7.005-8.349,6.741
							c3.385-0.376,11.405-3.682,11.405-3.682s-9.9,3.682-6.515,5.186c2.197,1.27,3.95,0.066,3.95,0.066s-1.648,0.877-0.565,1.438
							c3.008,1.504,21.162-0.282,21.162-0.282L438.135,270.661z"/>
					</g>
					<g>
						<g>
							<path style="fill:#EF714B;" d="M422.066,276.773c-1.745,0.127-3.539,1.247-5.069,2.032c-0.62,0.318-0.067,1.278,0.549,0.939
								c1.5-0.825,3.483-1.489,4.566-2.861C422.142,276.843,422.128,276.768,422.066,276.773L422.066,276.773z"/>
						</g>
					</g>
				</g>
				<g>
					<g>
						<path style="fill:#EF714B;" d="M422.04,271.761c-0.135,0.416,0.091,0.907,0.486,1.065c0.124,0.05,0.271-0.055,0.303-0.172
							c0.114-0.416-0.187-0.873-0.586-1.009C422.156,271.616,422.066,271.68,422.04,271.761L422.04,271.761z"/>
					</g>
				</g>
				<g>
					<g>
						<path style="fill:#EF714B;" d="M422.986,274.516c-0.237,0.447-0.087,1.207,0.265,1.556c0.195,0.193,0.551,0.11,0.621-0.164
							c0.122-0.479-0.132-1.214-0.567-1.476C423.2,274.369,423.044,274.405,422.986,274.516L422.986,274.516z"/>
					</g>
				</g>
				<g>
					<g>
						<path style="fill:#EF714B;" d="M422.262,279.783c0.059,0,0.059-0.092,0-0.092
							C422.204,279.692,422.203,279.783,422.262,279.783L422.262,279.783z"/>
					</g>
				</g>
				<g>
					<g>
						<path style="fill:#EF714B;" d="M423.396,279.355c-0.334,0.067-0.602,0.039-0.932,0.141c-0.236,0.073-0.473,0.176-0.701,0.27
							c-0.526,0.216-1.053,0.439-1.567,0.68c-0.449,0.211-0.058,0.857,0.386,0.661c0.54-0.238,1.076-0.496,1.601-0.766
							c0.242-0.124,0.499-0.243,0.722-0.4c0.205-0.145,0.332-0.342,0.53-0.494C423.479,279.413,423.454,279.343,423.396,279.355
							L423.396,279.355z"/>
					</g>
				</g>
				<g>
					<g>
						<path style="fill:#EF714B;" d="M423.501,278.221c0.001,0.164,0.02,0.295,0.05,0.457c0.13,0.684,1.293,0.277,0.911-0.384
							c-0.081-0.14-0.157-0.24-0.26-0.363C423.966,277.652,423.498,277.884,423.501,278.221L423.501,278.221z"/>
					</g>
				</g>
			</g>
			<g>
				<path style="fill:#3C333F;" d="M487.356,238.791c0,0,9.13-25.858,11.366-26.207c2.236-0.349,9.504,4.403,2.515,26.207
					c-6.988,21.803-24.598,38.902-24.598,38.902l-39.134,2.454c0,0,0.87-6.701-1.103-9.633c-1.972-2.932,33.9-8.893,33.9-8.893
					L487.356,238.791z"/>
			</g>
		</g>
		<g>
			<g>
				<g>
					<g>
						<g>
							<path style="fill:#6D2B29;" d="M438.209,158.549c0.164-2.703,1.211-5.208,3.098-7.163c1.515-1.57,3.314-2.109,5.135-3.15
								c0.362-0.207,0.226-0.861-0.223-0.823c-5.212,0.437-8.161,6.546-8.111,11.136
								C438.108,158.615,438.205,158.614,438.209,158.549L438.209,158.549z"/>
						</g>
					</g>
					<path style="fill:#6D2B29;" d="M439.248,159.704c-0.292,3.525,0.313,7.088,1.605,10.414c0.338,0.87,0.767,1.77,1.627,2.287
						c2.731,1.641,4.647-1.81,6.012-3.299c2.154-2.349,3.496-5.232,3.78-8.17c0.249-2.568,1.129-5.17,1.209-7.734
						c0.059-1.881-1.776-3.698-3.435-4.773c-1.332-0.863-3.185-1.277-4.766-0.663c-1.325,0.515-2.22,1.632-2.929,2.74
						C440.495,153.408,439.51,156.54,439.248,159.704z"/>
					<g>
						<g>
							<path style="fill:#FFAF66;" d="M441.264,164.437c-1.183-4.682,0.384-8.759,3.471-12.288c0.09-0.102-0.044-0.23-0.147-0.147
								c-3.651,2.925-4.655,8.112-3.38,12.45C441.219,164.488,441.273,164.473,441.264,164.437L441.264,164.437z"/>
						</g>
					</g>
				</g>
				
					<path style="fill:#FF9B73;stroke:#EF714B;stroke-width:0.9744;stroke-linecap:round;stroke-linejoin:round;stroke-miterlimit:10;" d="
					M478.064,163.33c0.018,1.161-0.047,2.324-0.183,3.473c-0.585,4.974-2.185,9.931-4.527,14.338
					c-2.23,4.197-5.773,7.596-9.646,10.285c-2.787,1.935-6.482,4.877-9.955,3.263c-2.641-1.227-4.764-3.395-6.326-5.853
					c-1.561-2.458-2.599-5.21-3.496-7.98c-0.546-1.684-1.048-3.43-0.923-5.196c0.098-1.38,0.591-2.702,0.665-4.084
					c0.059-1.103-0.298-2.12-0.419-3.203c-0.386-3.46-0.044-7.025,1.197-10.29c3.117-8.204,13.061-13.731,21.668-11.308
					c4.515,1.271,8.403,4.612,10.338,8.884C477.544,158.059,478.022,160.687,478.064,163.33z"/>
				<g>
					<path style="fill:#893530;" d="M453.871,160.736c1.359,2.71,2.673,5.455,4.724,7.768c1.962,2.212,4.694,4.048,7.541,4.894
						c1.952,0.58,4.959,1.848,6.093,3.671c0.361,0.58,1.264,6.449,0.505,6.726c4.99-1.773,9.079-5.58,12.927-9.056
						c-0.667-3.675-1.334-7.35-2.001-11.026c-0.825-4.549-1.668-9.153-3.599-13.354c-2.508-5.457-7.01-10.15-12.7-12.073
						c-5.02-1.697-10.988-0.989-15.214,2.31c-3.473,2.711-7.704,8.101-5.775,12.763c2.47-2.001,5.536,3.606,6.63,5.68
						C453.3,159.601,453.587,160.167,453.871,160.736z"/>
					<g>
						<g>
							<path style="fill:#893530;" d="M473.773,174.141c-7.776,2.979-16.781-0.616-19.422-8.732
								c-1.824-5.605-1.115-12.445-6.545-16.171c-0.522-0.358-1.016,0.494-0.496,0.848c3.949,2.686,4.467,7.511,5.263,11.822
								c0.599,3.247,1.54,6.308,3.706,8.865c4.391,5.184,11.507,6.473,17.501,3.389
								C473.793,174.157,473.785,174.137,473.773,174.141L473.773,174.141z"/>
						</g>
					</g>
					<g>
						<g>
							<path style="fill:#893530;" d="M452.455,138.643c-4.396,3.071-7.466,8.398-5.972,13.852c0.039,0.143,0.264,0.117,0.261-0.035
								c-0.103-5.247,1.341-10.488,5.758-13.737C452.549,138.688,452.504,138.609,452.455,138.643L452.455,138.643z"/>
						</g>
					</g>
					<g>
						<g>
							<path style="fill:#893530;" d="M487.223,173.489c-1.022-3.852-2.257-7.626-3.541-11.397
								c-1.176-3.454-2.242-7.039-3.848-10.323c-0.081-0.166-0.32-0.045-0.285,0.12c0.827,3.872,2.345,7.637,3.651,11.367
								c1.214,3.465,2.491,6.895,3.938,10.269C487.16,173.573,487.236,173.538,487.223,173.489L487.223,173.489z"/>
						</g>
					</g>
					<g>
						<g>
							<path style="fill:#FFAF66;" d="M469.832,171.16c-8.007-3.539-13.017-9.634-17.185-17.09
								c-0.032-0.056-0.126-0.019-0.106,0.045c2.565,7.89,9.818,14.021,17.264,17.109
								C469.841,171.238,469.868,171.176,469.832,171.16L469.832,171.16z"/>
						</g>
					</g>
					<g>
						<g>
							<path style="fill:#FFAF66;" d="M481.102,161.06c-0.879-6.591-3.976-13.08-9.246-17.276c-0.068-0.054-0.163,0.034-0.098,0.098
								c4.862,4.801,8.239,10.354,9.265,17.189C481.03,161.115,481.108,161.105,481.102,161.06L481.102,161.06z"/>
						</g>
					</g>
					<g>
						<g>
							<path style="fill:#FFAF66;" d="M456.196,139.786c-3.657,1.494-6.576,4.109-8.139,7.776c-0.037,0.086,0.081,0.163,0.13,0.076
								c1.866-3.326,4.581-6.115,8.041-7.778C456.268,139.84,456.239,139.769,456.196,139.786L456.196,139.786z"/>
						</g>
					</g>
					<g>
						<g>
							<path style="fill:#FFAF66;" d="M455.483,143.718c-2.621,1.259-5.928,3.443-7.118,6.228c-0.054,0.127,0.087,0.258,0.2,0.154
								c1.099-1.015,1.926-2.308,3.034-3.335c1.204-1.116,2.536-2.103,3.943-2.947C455.606,143.779,455.55,143.686,455.483,143.718
								L455.483,143.718z"/>
						</g>
					</g>
					<g>
						<g>
							<path style="fill:#FFAF66;" d="M479.083,162.96c-1.84-5.673-5.064-10.679-9.62-14.543c-0.045-0.038-0.11,0.025-0.065,0.065
								c4.41,3.994,7.711,8.848,9.597,14.502C479.013,163.041,479.102,163.017,479.083,162.96L479.083,162.96z"/>
						</g>
					</g>
					<g>
						<g>
							<path style="fill:#FFAF66;" d="M474.683,160.689c-3.067-6.78-9.426-12.516-16.924-13.749
								c-0.166-0.027-0.237,0.204-0.071,0.256c7.322,2.318,13.342,6.584,16.855,13.575
								C474.591,160.865,474.725,160.782,474.683,160.689L474.683,160.689z"/>
						</g>
					</g>
					<g>
						<g>
							<path style="fill:#FFAF66;" d="M457.937,149.914c-2.515-0.618-5.329-0.45-7.466,1.161c-0.227,0.171-0.037,0.524,0.227,0.389
								c2.299-1.174,4.594-1.891,7.198-1.405C457.991,150.076,458.032,149.937,457.937,149.914L457.937,149.914z"/>
						</g>
					</g>
					<g>
						<g>
							<path style="fill:#FFAF66;" d="M479.815,173.932c-3.235-5.723-7.253-11.052-12.183-15.428
								c-0.061-0.054-0.149,0.032-0.09,0.09c4.724,4.637,8.888,9.63,12.223,15.367C479.783,173.993,479.833,173.964,479.815,173.932
								L479.815,173.932z"/>
						</g>
					</g>
				</g>
			</g>
			<g>
				<g>
					<path style="fill:#EF714B;" d="M449.412,182.224c0.304,0.182,0.604,0.312,0.819,0.403c0.233,0.102,0.505-0.007,0.606-0.241
						c0.1-0.232-0.013-0.499-0.241-0.604c-0.706-0.301-1.367-0.663-1.472-1.227c-0.093-0.475,0.253-1,0.586-1.506l0.097-0.149
						c1.069-1.642,1.674-3.628,1.704-5.589c0.005-0.257-0.205-0.461-0.453-0.469c-0.255-0.003-0.465,0.201-0.468,0.455
						c-0.027,1.791-0.58,3.601-1.556,5.102l-0.093,0.142c-0.394,0.6-0.883,1.343-0.722,2.185
						C448.352,181.438,448.888,181.91,449.412,182.224z"/>
				</g>
				<g>
					<g>
						<path style="fill:#560200;" d="M463.326,170.047c-1.137-0.432-2.12-1.1-3.335-1.355c-1.455-0.305-2.797-0.058-4.246,0.126
							c-0.394,0.05-0.63-0.438-0.261-0.666c2.273-1.406,6.624-0.807,8.103,1.566C463.686,169.876,463.509,170.116,463.326,170.047
							L463.326,170.047z"/>
					</g>
					<g>
						<path style="fill:#560200;" d="M458.271,175.051c-1.92-0.322-1.423-3.305,0.5-2.983
							C460.69,172.389,460.193,175.374,458.271,175.051L458.271,175.051z"/>
					</g>
					<g>
						<path style="fill:#560200;" d="M446.513,174.19c-1.92-0.321-1.423-3.306,0.5-2.984
							C448.933,171.528,448.437,174.512,446.513,174.19L446.513,174.19z"/>
					</g>
					<g>
						<path style="fill:#560200;" d="M449.216,168.652c-1.047-0.341-2.072-0.759-3.186-0.813c-0.931-0.045-1.885,0.496-2.76,0.22
							c-0.233-0.073-0.316-0.316-0.21-0.527c0.51-1.01,2.153-0.989,3.137-0.867c1.281,0.16,2.477,0.71,3.12,1.859
							C449.352,168.589,449.288,168.676,449.216,168.652L449.216,168.652z"/>
					</g>
					<g>
						<path style="fill:#893530;" d="M461.676,179.039c-0.659-0.545-1.349-1.033-1.936-1.662c-0.057-0.062,0.027-0.166,0.097-0.114
							c0.693,0.509,1.26,1.138,1.879,1.728C461.742,179.016,461.704,179.062,461.676,179.039L461.676,179.039z"/>
					</g>
					<g>
						<path style="fill:#893530;" d="M457.432,178.55c-0.659-0.545-1.349-1.033-1.936-1.661c-0.058-0.062,0.027-0.166,0.097-0.115
							c0.693,0.509,1.26,1.138,1.879,1.728C457.498,178.526,457.459,178.573,457.432,178.55L457.432,178.55z"/>
					</g>
					<g>
						<path style="fill:#893530;" d="M460.364,179.374c-0.984-0.681-2.087-1.484-2.822-2.436c-0.052-0.067,0.021-0.16,0.097-0.115
							c1.036,0.613,1.971,1.611,2.765,2.503C460.428,179.352,460.394,179.395,460.364,179.374L460.364,179.374z"/>
					</g>
					<g>
						<path style="fill:#893530;" d="M448.963,177.505c-0.642-0.56-1.317-1.063-1.886-1.704c-0.055-0.062,0.027-0.169,0.097-0.115
							c0.68,0.527,1.232,1.17,1.835,1.776C449.039,177.492,448.993,177.531,448.963,177.505L448.963,177.505z"/>
					</g>
					<g>
						<path style="fill:#893530;" d="M444.732,176.907c-0.642-0.56-1.317-1.063-1.886-1.704c-0.055-0.062,0.027-0.169,0.097-0.114
							c0.68,0.527,1.232,1.169,1.836,1.776C444.808,176.894,444.762,176.933,444.732,176.907L444.732,176.907z"/>
					</g>
					<g>
						<path style="fill:#893530;" d="M447.649,177.811c-0.968-0.706-2.047-1.535-2.759-2.506c-0.049-0.066,0.02-0.163,0.097-0.115
							c1.022,0.64,1.928,1.659,2.702,2.573C447.712,177.79,447.679,177.833,447.649,177.811L447.649,177.811z"/>
					</g>
				</g>
				<g>
					<g>
						<path style="fill:#C9153D;" d="M454.882,185.9c-0.262-0.095-0.438-0.327-0.698-0.447c-0.269-0.123-0.535-0.23-0.795-0.372
							c-0.395-0.217-0.723-0.471-1.023-0.81c-0.843-0.949-2.28,0.472-1.399,1.399c0.482,0.507,1.107,0.846,1.8,0.96
							c0.354,0.058,0.737,0.064,1.091-0.002c0.514-0.096,0.62-0.349,1.042-0.595C454.956,186,454.939,185.921,454.882,185.9
							L454.882,185.9z"/>
					</g>
				</g>
				<g>
					<g>
						<path style="fill:#C9153D;" d="M453.107,187.906c0.234-0.281,0.503-0.529,0.737-0.81c0.4-0.48,0.47-1.167,0-1.637
							c-0.425-0.425-1.218-0.467-1.637,0c-0.244,0.271-0.522,0.509-0.766,0.781c-0.425,0.473-0.467,1.2,0,1.667
							C451.858,188.324,452.698,188.398,453.107,187.906L453.107,187.906z"/>
					</g>
				</g>
			</g>
			<g>
				<g>
					<path style="fill:#C9153D;" d="M453.531,172.095c-0.089,1.026,0.14,2.117,0.347,2.852c0.512,1.814,1.783,3.129,3.487,3.608
						c0.282,0.079,0.57,0.137,0.861,0.175c1.364,0.178,2.788-0.09,3.875-0.756c1.081-0.662,1.77-1.65,1.992-2.858
						c0.079-0.426,0.145-0.953,0.157-1.491l1.076,0.001l0.193-2.905l-3.746-0.393l-0.013,0.017
						c-0.144-0.032-0.286-0.067-0.437-0.086c-0.905-0.111-1.898-0.201-3.125-0.283c-0.546-0.036-1.101-0.07-1.664-0.101
						C454.782,169.781,453.659,170.611,453.531,172.095z M454.516,172.182c0.082-0.952,0.745-1.401,1.97-1.336
						c0.559,0.03,1.109,0.063,1.65,0.1c1.208,0.08,2.183,0.169,3.069,0.278c0.01,0.001,0.021,0.002,0.031,0.004
						c0.672,0.088,1.223,0.337,1.636,0.741c0.137,0.134,0.234,0.314,0.295,0.55c0.193,0.743,0.081,1.726-0.046,2.419
						c-0.172,0.932-0.705,1.696-1.543,2.209c-1.092,0.667-2.607,0.848-3.946,0.471c-1.383-0.388-2.379-1.428-2.802-2.928
						C454.645,174.033,454.439,173.064,454.516,172.182z"/>
					<path style="fill:#C9153D;" d="M464.541,171.417c-0.031,0.152,0.069,0.301,0.223,0.332c0.155,0.031,0.305-0.066,0.336-0.218
						c0.031-0.152-0.069-0.301-0.223-0.332C464.723,171.167,464.572,171.264,464.541,171.417z"/>
				</g>
				<g>
					<path style="fill:#C9153D;" d="M447.544,169.463c-0.504-0.039-0.999-0.074-1.488-0.106c-1.097-0.07-1.989-0.104-2.806-0.106
						c-0.137,0-0.267,0.017-0.398,0.031l-0.01-0.018l-3.37-0.073l-0.208,2.903l0.953,0.132c-0.059,0.535-0.069,1.065-0.055,1.497
						c0.039,1.225,0.52,2.29,1.392,3.079c0.876,0.794,2.103,1.236,3.335,1.228c0.263-0.002,0.526-0.024,0.786-0.067
						c1.572-0.264,2.87-1.41,3.561-3.145c0.28-0.703,0.625-1.756,0.68-2.784C449.996,170.548,449.109,169.587,447.544,169.463z
						 M448.426,174.446c-0.571,1.434-1.589,2.343-2.865,2.556c-1.235,0.208-2.555-0.158-3.435-0.954
						c-0.676-0.612-1.049-1.436-1.079-2.38c-0.022-0.703,0.007-1.69,0.275-2.403c0.085-0.227,0.194-0.393,0.333-0.508
						c0.419-0.35,0.94-0.529,1.547-0.533c0.009,0,0.018,0,0.028,0c0.8,0.001,1.675,0.034,2.756,0.104
						c0.485,0.031,0.977,0.066,1.476,0.105c1.094,0.087,1.622,0.614,1.571,1.567C448.985,172.883,448.676,173.817,448.426,174.446z"
						/>
					<path style="fill:#C9153D;" d="M440.248,170.001c0.008,0.155-0.1,0.29-0.241,0.301c-0.141,0.012-0.262-0.104-0.269-0.258
						c-0.008-0.154,0.1-0.29,0.241-0.301C440.12,169.731,440.241,169.847,440.248,170.001z"/>
				</g>
				<path style="fill:#C9153D;" d="M454.533,171.63c-1.428-1.095-3.388-1.46-5.118-0.946l0.387,1.251
					c1.328-0.393,2.829-0.116,3.917,0.722L454.533,171.63z"/>
				<polygon style="fill:#C9153D;" points="465.52,170.721 477.151,172.855 480.854,176.271 480.153,176.918 476.77,174.113 
					465.327,173.626 				"/>
			</g>
			<g>
				
					<path style="fill:#FF9B73;stroke:#EF714B;stroke-width:0.9744;stroke-linecap:round;stroke-linejoin:round;stroke-miterlimit:10;" d="
					M470.314,175.701c0.635-1.504,2.261-2.934,3.817-3.396c2.836-0.842,4.115,2.004,3.437,4.35c-0.887,3.068-3.638,6.939-7.297,6.2"
					/>
				
					<path style="fill:none;stroke:#EF714B;stroke-width:0.9744;stroke-linecap:round;stroke-linejoin:round;stroke-miterlimit:10;" d="
					M475.211,176.367c0.41-0.589,0.082-1.508-0.516-1.634c-1.503-0.318-2.495,1.876-2.731,3.051
					c0.697-0.107,0.997,0.727,0.689,1.267c-0.305,0.536-1.014,0.866-1.615,0.887"/>
			</g>
		</g>
	</g>
	<g>
		<g>
			<g>
				<path style="fill:none;stroke:#352C38;stroke-width:2.9863;stroke-miterlimit:10;" d="M577.012,293.523h-17.145v-6.858
					c0-3.211,2.603-5.814,5.814-5.814h5.516c3.211,0,5.814,2.603,5.814,5.814V293.523z"/>
				<rect x="536.523" y="289.434" style="fill:#4D4251;" width="63.834" height="42.915"/>
			</g>
			<g>
				<g>
					<path style="fill:#FF9B73;stroke:#EF714B;stroke-width:0.6101;stroke-linejoin:round;stroke-miterlimit:10;" d="
						M566.408,274.482l-3.18,7.092c-0.143,0.32-0.175,0.678-0.091,1.018l0.976,3.943c0.08,0.324,0.264,0.611,0.529,0.814
						c0.753,0.581,2.316,1.497,2.844-0.413c0,0-0.004,1.976,1.692,1.757c1.475-0.19,1.305-1.989,1.305-1.989
						s1.564,1.056,2.313-0.839c0,0,1.788,0.888,2.207-1.878c0,0-0.86-8.008-0.86-8.009c-0.131-1.218-0.377-4.417-0.004-5.553
						c1.334-4.057,2.581-8.226,3.884-12.378c1.025-3.268,2.085-6.527,3.247-9.711c0.843-2.309,4.736-12.169,5.839-15.973
						c1.378-4.758,2.637-9.55,3.775-14.37c0.533-2.258,1.043-4.584,0.712-6.881c-0.331-2.297-1.683-4.589-3.863-5.384
						c-4.112-1.5-6.185,5.017-6.986,8.136c-1.064,4.145-2.127,8.289-3.19,12.434c-0.924,3.599-2.449,11.944-3.748,16.165
						C573.292,244.133,567.918,267.973,566.408,274.482z"/>
					<g>
						<path style="fill:#EF714B;" d="M564.933,282.917c1.647,1.145,3.488,0.935,5.29,0.304c0.909-0.318,2.925-1.548,0.834-2.129
							c-0.791-0.22-1.824-0.007-2.649-0.09c-0.32-0.032-0.325-0.485,0.003-0.504c0.97-0.057,1.982-0.034,2.954,0.016
							c0.378,0.019,0.866,0.009,1.18,0.268c0.751,0.619,0.276,1.763-0.299,2.316c-0.958,0.923-2.862,1.354-4.145,1.434
							c-1.346,0.084-2.588-0.294-3.276-1.506C564.789,282.961,564.865,282.87,564.933,282.917L564.933,282.917z"/>
					</g>
					<g>
						<path style="fill:#EF714B;" d="M569.266,280.694c0.028-0.238,0.139-0.354,0.305-0.53c0.251-0.265,0.481-0.519,0.65-0.848
							c0.361-0.704,0.258-1.34,0.348-2.083c0.029-0.238,0.319-0.342,0.462-0.124c0.431,0.659,0.222,1.668-0.082,2.339
							c-0.227,0.501-0.896,1.611-1.578,1.385C569.317,280.815,569.259,280.759,569.266,280.694L569.266,280.694z"/>
					</g>
					<g>
						<path style="fill:#EF714B;" d="M567.326,287.733c-0.272-0.669-0.465-1.392-0.575-2.106c-0.075-0.484-0.309-1.113,0.049-1.508
							c0.027-0.03,0.081-0.047,0.121-0.033c0.643,0.237,0.53,1.169,0.63,1.738c0.116,0.664,0.433,1.327,0.031,1.942
							C567.51,287.875,567.372,287.844,567.326,287.733L567.326,287.733z"/>
					</g>
					<g>
						<path style="fill:#EF714B;" d="M570.093,287.517c0.109-1.219-0.104-2.359-0.512-3.503c-0.106-0.298,0.371-0.499,0.515-0.216
							c0.604,1.187,0.618,2.522,0.137,3.739C570.206,287.604,570.085,287.605,570.093,287.517L570.093,287.517z"/>
					</g>
					<g>
						<path style="fill:#EF714B;" d="M572.149,286.449c-0.046-0.496,0.132-0.971,0.098-1.472c-0.04-0.57-0.331-0.983-0.459-1.515
							c-0.082-0.342,0.303-0.515,0.552-0.322c0.84,0.654,0.974,2.825,0.002,3.419C572.252,286.615,572.158,286.542,572.149,286.449
							L572.149,286.449z"/>
					</g>
					<g>
						<path style="fill:#EF714B;" d="M574.766,283.241c-0.272-0.793-0.541-1.64-0.937-2.382c-0.462-0.866-1.116-0.081-1.442,0.431
							c-0.179,0.281-0.686,0.111-0.565-0.235c0.219-0.627,1.009-1.44,1.731-1.121c0.35,0.155,0.541,0.504,0.683,0.842
							c0.325,0.771,0.513,1.608,0.682,2.424C574.939,283.299,574.799,283.337,574.766,283.241L574.766,283.241z"/>
					</g>
				</g>
				<path style="fill:#352C38;" d="M589.11,241.092c-4.469,0.605-9.124-0.863-13.157-2.782c-0.777-0.37-1.542-0.769-2.3-1.182
					c0.126-0.489,0.251-0.978,0.376-1.467c0.958-3.765,4.117-14.857,5.026-18.633c8.496-35.288,17.538-45.619,20.57-46.044
					c8.348-1.171,7.441,9.276,6.391,15.339c-1.485,8.574-6.504,23.445-9.692,31.542c-1.302,3.307-7.628,22.944-7.628,22.944
					S588.86,240.924,589.11,241.092z"/>
			</g>
		</g>
		<path style="fill:#201923;" d="M587.367,236.191c-2.121,16.107-6.779,31.886-14.086,46.254c-0.513,1.018,3.073,0.745,3.732,0.777
			c1.838,0.088,3.676,0.177,5.514,0.265c3.592,0.173,7.185,0.346,10.777,0.519c2.086,0.1,4.362,0.143,6.028-1.175
			c1.95-1.542,2.377-4.375,2.651-6.918c0.695-6.426,1.761-12.934,2.097-19.389c0.135-2.589-0.16-5.143,0.032-7.791
			c0.224-3.095,0.786-6.284,0.786-9.384c0.482-6.637,0.987-13.272,1.505-19.906c0.139-1.783,0.278-3.567,0.418-5.351
			c0.646-8.274,1.292-16.548,1.937-24.822c0.33-4.225,0.659-8.45,0.989-12.675c0.152-1.942,0.55-3.855,0.586-5.809
			c0.055-3.054-1.69-7.134-5.257-4.884c-0.642,0.404-1.183,0.959-1.718,1.507c-3.472,3.563-6.886,7.189-10.194,10.92
			c-3.001,3.386-6.177,6.626-6.19,11.557c-0.012,4.089,0.701,8.082,1.08,12.135c0.4,4.271,0.613,8.56,0.64,12.851
			C588.738,221.992,588.297,229.127,587.367,236.191z"/>
		<g>
			<g>
				<g>
					<path style="fill:#352C38;" d="M617.637,450.002c-1.863,1.491-9.593,0.049-13.35-0.768c-0.317,0.826-0.585,1.362-0.825,1.762
						c-0.746,1.243-1.492,4.228-1.244,5.968c0.25,1.741,1.244,2.487,1.244,2.487s6.715,1.216,10.196-0.884
						c3.482-2.1,4.974-2.847,4.974-2.847s2.486-16.165,3.481-18.652c0.995-2.487,2.239-4.477,2.239-4.477s-0.44-1.766-0.757-4.161
						c-0.405,1.032-0.992,2.289-1.854,3.788C618.88,437.194,620.124,448.013,617.637,450.002z"/>
				</g>
				<g>
					<path style="fill:#FF9B73;stroke:#EF714B;stroke-width:0.6101;stroke-linejoin:round;stroke-miterlimit:10;" d="
						M634.548,369.176c-2.487-12.434-4.725-16.662-4.974-18.154c-0.248-1.492-0.248-11.44-0.248-11.44l-19.181-0.719
						c-0.178,3.052-0.998,18.622,0.669,20.864c1.849,2.487,3.59,2.487,4.087,10.445c0.498,7.958-1.741,49.241-1.741,49.241
						s-3.979,10.445-5.968,19.15c-1.348,5.897-2.239,8.936-2.905,10.673c3.757,0.817,11.487,2.258,13.35,0.768
						c2.487-1.99,1.244-12.808,4.104-17.782c0.862-1.499,1.449-2.757,1.854-3.788c-0.095-0.722-0.18-1.498-0.238-2.305
						C623.108,422.646,637.035,381.611,634.548,369.176z"/>
				</g>
				<path style="fill:#EF714B;" d="M615.993,349.319c-2.175,0.258-4.347,0.188-6.516,0.099c0.022-4.208,0.242-8.511,0.363-10.573
					c0.009-0.166,0.158-0.305,0.316-0.287l19.18,0.719c0.164,0.007,0.294,0.141,0.294,0.305c0,0.057,0.001,3.32,0.047,6.366
					C625.132,347.221,620.741,348.754,615.993,349.319z"/>
				<g>
					<path style="fill:#FF9B73;stroke:#EF714B;stroke-width:0.6101;stroke-linejoin:round;stroke-miterlimit:10;" d="
						M589.534,448.51c0.497-2.736,1.492-8.207,4.726-11.937c2.508-2.894,4.86-5.348,5.908-9.665
						c-0.258-0.776-0.436-1.277-0.436-1.277s-3.482-3.35-4.725-7.022c-1.244-3.672,3.73-33.018,3.73-38.241
						c0-5.222-4.228-21.636-4.228-21.636l4.228-21.388h-21.388c0,0-2.736,17.906-1.99,19.896c0.746,1.99,2.743,7.958,2.736,12.683
						c-0.008,4.631,4.703,60.913,4.725,61.179l-2.238,17.657c0,0-0.463,1.38-1.596,2.736h4.829
						C583.814,451.494,589.037,451.245,589.534,448.51z"/>
				</g>
				<path style="fill:#EF714B;" d="M585.868,349.057c-3.431-0.343-6.887-0.848-10.19-1.849c0.551-4.514,1.228-8.995,1.368-9.912
					c0.023-0.149,0.151-0.258,0.301-0.258h21.388c0.091,0,0.178,0.041,0.236,0.112c0.058,0.07,0.081,0.163,0.064,0.252
					l-2.346,11.869C592.879,349.631,589.454,349.415,585.868,349.057z"/>
				<g>
					<path style="fill:#352C38;" d="M600.167,426.907c-1.048,4.317-3.4,6.771-5.908,9.665c-3.234,3.73-4.228,9.202-4.726,11.937
						c-0.498,2.735-5.72,2.984-5.72,2.984h-4.829c-0.907,1.085-2.244,2.155-4.124,2.487c-4.228,0.746-2.735,4.228-1.99,4.477
						c0.746,0.249,15.17,0,15.17,0s4.228-12.186,6.218-14.424c1.989-2.238,4.227-4.228,4.227-4.228l-1.243,17.657l1.243-0.746
						l1.99-18.901c0,0,1.74,0.435,1.74-2.393C602.217,433.346,600.88,429.05,600.167,426.907z"/>
				</g>
			</g>
			<g>
				<g>
					<path style="fill:#352C38;" d="M636.952,271.853c-3.648-9.616-3.979-21.222-3.979-21.222l-2.654-8.763
						c0,0-20.559,8.432-28.517,8.763c-7.959,0.332-8.978-3.754-8.978-3.754l-6.939,35.919c-1.657,7.959-10.657,60.681-10.657,60.681
						s18.284,2.985,31.879,1.658c13.595-1.327,31.17-3.648,31.17-3.648S640.599,281.47,636.952,271.853z"/>
				</g>
				<path style="fill:#201923;" d="M630.887,253.375c0.252,0.415,1.167,0.623,2.367,1.255c0.407,4.231,1.386,11.125,3.699,17.223
					c1.166,3.075,1.721,11.305,1.938,21.077c-3.056,1.149-6.083,1.838-9.359,2.048c-3.081,0.198-6.171,0.154-9.255,0.073
					c-0.929-0.024-1.858-0.054-2.786-0.081c-0.375-0.011-1.558,0.154-1.853-0.053c-0.905-0.633-0.25-3.171-0.172-4.186
					c0.931-12.128-0.824-24.201-1.049-36.32L630.887,253.375z"/>
			</g>
		</g>
		<g>
			<g>
				<path style="fill:#FFFFFF;" d="M634.428,250.695c-1.535-6.512-4.135-15.489-6.016-22.807c-1.715-6.67,0.369-12.68,2.181-19.183
					c2.026-7.271,4.052-14.542,6.078-21.813c0.756-2.712,1.517-5.47,1.404-8.256c-0.316-7.773-9.046-12.964-16.572-14.209
					c-4.795-0.793-10.832,0.111-14.761,3.025c-3.172,2.353-13.786,13.028-14.876,16.163c-1.264,3.634-0.983,5.438-0.596,7.567
					c1.638,9.003,3.371,32.447,3.167,33.518c-0.176,0.923-1.175,19.584-4.028,25.235c-0.753,1.482,5.249,3.893,17.944,4.85
					C627.783,256.252,634.571,251.3,634.428,250.695z"/>
			</g>
			<g>
				<path style="fill:#FF9B73;stroke:#EF714B;stroke-width:0.7925;stroke-linejoin:round;stroke-miterlimit:10;" d="
					M624.607,139.106c-1.098-0.457-3.575,0.063-4.682,0.204c-3.266,0.417-6.48,1.394-9.367,2.932
					c-2.019,1.129-2.343,2.125-2.218,3.458c0.364,3.865,1.201,7.381,0.963,11.217c-0.199,3.204-0.589,6.829-2.081,9.728
					c-1.307,2.539-3.233,4.679-5.083,6.827c-1.667,1.936-3.735,4.011-4.669,6.434c-0.986,2.56,0.354,4.831,2.989,5.432
					c3.201,0.73,6.473-1.059,8.829-3.347c4.736-4.6,9.743-16.288,17.456-17.156c-1.203,0.008-4.666-7.32-4.612-9.635
					C622.256,149.852,623.98,144.4,624.607,139.106z"/>
				<path style="opacity:0.5;fill:#FF9B73;" d="M609.09,147.516c0.072,0.571,0.133,1.155,0.21,1.718
					c0.356,2.595,0.692,5.046,0.526,7.715c-0.107,1.728-0.311,3.572-0.684,5.374c5.089-4.389,10.064-9.396,13.482-15.057
					c0.116-0.607,0.234-1.213,0.354-1.813c0.227-1.135,0.448-2.29,0.652-3.445c-0.034-0.152-0.092-0.291-0.147-0.432
					C618.417,141.153,613.244,143.971,609.09,147.516z"/>
			</g>
			<path style="fill:#352C38;" d="M615.07,214.092c0.062,0.969,0.12,1.938,0.171,2.908c0.887,16.577,2.714,53.17,3.601,69.747
				c8.764,0.021,21.494-3.132,29.457-6.796c0.054-0.025-8.036-32.937-8.253-34.276c-0.909-5.607-1.524-11.26-1.84-16.924
				c-0.294-5.278-0.147-9.256,1.144-14.361c1.355-5.358,2.948-10.646,4.021-16.087c1.248-6.326,1.718-12.896,0.422-19.324
				c-0.998-4.948-5.716-8.119-9.495-10.626c-4.841-3.212-7.359-6.176-12.598-2.225c-3.666,2.764-4.833,4.56-5.67,9.139
				C613.638,188.372,614.223,200.758,615.07,214.092z"/>
			<path style="fill:#201923;" d="M638.716,182.548c-2.746-2.074-5.178-4.73-8.078-6.566c-1.591-1.007-3.585-1.784-5.497-1.763
				c-2.302,0.026-2.931,1.851-3.02,3.812c-0.214,4.705,1.433,9.875,2.422,14.447c2.584,11.949,5.656,24.263,12.877,34.361
				c0.206,0.289,0.416,0.575,0.629,0.859c-0.215-4.761-0.01-8.551,1.192-13.306c1.355-5.358,2.948-10.646,4.021-16.087
				c0.715-3.626,1.16-7.332,1.178-11.045C642.663,185.554,640.695,184.043,638.716,182.548z"/>
		</g>
		<g>
			<g>
				<g>
					<g>
						
							<path style="fill:#FF9B73;stroke:#EF714B;stroke-width:0.7777;stroke-linecap:round;stroke-linejoin:round;stroke-miterlimit:10;" d="
							M629.517,170.624c-3.553,2.015-4.668,6.648-2.361,10.018c0.014,0.021,0.028,0.041,0.042,0.062
							c3.632,5.286,8.78,9.277,13.466,13.563c6.327,5.786,13.041,10.724,19.814,17.913c0.289,1.982-2.632,5.027-3.971,7.376
							c-4.973,8.724-16.139,29.065-19.215,30.177l5.081,6.959c1.041-1.247,21.02-30.334,28.514-40.033
							c1.684-2.18,2.398-4.699,1.888-6.348c-0.242-0.781-0.446-0.76-2.509-3.68c-4.229-5.985-26.395-31.897-33.891-36.109
							c-2.114-1.188-4.711-1.116-6.821,0.08L629.517,170.624z"/>
					</g>
				</g>
			</g>
			<g>
				<g>
					<g>
						<path style="fill:#FF9B73;stroke:#EF714B;stroke-width:0.6429;stroke-miterlimit:10;" d="M637.532,259.944
							c0.793-0.014,1.585-0.067,2.354-0.258c1.445-0.36,2.478-1.373,3.598-2.283c0.897-0.728,2.352-1.569,1.561-2.965
							c-0.242-0.428-0.676-0.758-0.781-1.239c-0.109-0.496,0.168-1.028,0.017-1.513c-0.248-0.798-1.388-0.88-1.922-1.523
							c-0.509-0.613-0.329-1.537-0.613-2.281c-0.266-0.695-0.976-1.197-1.72-1.213c-0.969-0.022-1.475,0.773-2.206,1.25
							c-1.003,0.655-2.028,1.185-3.199,1.474c-0.942,0.233-1.92,0.127-2.619,0.91c-0.728,0.815-0.162,2.128,0.97,2.166
							c-0.443,0.329-0.889,0.66-1.261,1.066c-0.183,0.199-0.355,0.438-0.355,0.709c0,0.405,1.346,1.175,1.754,1.038
							c-0.565,0.19-0.948,1.109-0.55,1.611c0.445,0.561,1.93,0.925,2.591,1.159c-0.408,0.042-0.673,0.521-0.583,0.921
							c0.09,0.401,0.445,0.699,0.832,0.836c0.387,0.137,0.807,0.139,1.218,0.139C636.921,259.95,637.227,259.95,637.532,259.944z"/>
					</g>
				</g>
				<g>
					<g>
						<path style="fill:#EF714B;" d="M638.765,251.394c-2.095,0.489-4.14,1.07-6.3,0.726c-0.428-0.068-0.614,0.528-0.183,0.662
							c2.315,0.722,4.517-0.211,6.493-1.362C638.791,251.412,638.781,251.39,638.765,251.394L638.765,251.394z"/>
					</g>
				</g>
				<g>
					<g>
						<path style="fill:#EF714B;" d="M639.517,254.015c-1.07,0.637-3.091,0.793-4.277,0.89c-0.855,0.069-1.989-0.313-2.642,0.313
							c-0.015,0.014-0.02,0.043-0.008,0.061c0.586,0.859,2.038,0.486,2.938,0.379c0.726-0.086,1.44-0.234,2.13-0.479
							c0.687-0.244,1.256-0.76,1.929-0.995C639.714,254.138,639.63,253.948,639.517,254.015L639.517,254.015z"/>
					</g>
				</g>
				<g>
					<g>
						<path style="fill:#EF714B;" d="M640.385,256.656c-0.841,0.003-1.612,0.392-2.416,0.604c-1.032,0.271-2.067,0.392-3.128,0.474
							c-0.526,0.041-0.539,0.849,0,0.83c1.705-0.06,4.45-0.423,5.556-1.887C640.405,256.668,640.395,256.656,640.385,256.656
							L640.385,256.656z"/>
					</g>
				</g>
			</g>
			<path style="fill:#352C38;" d="M658.48,212.324c0,0-1.428,3.192-1.928,3.044c3.129,3.574,6.461,6.833,11.568,8.118
				c1.732-3.258,5.196-7.61,6.281-11.137c0.411-1.336,0.711-3.335,0.351-4.686c-0.392-1.473-1.576-2.384-2.566-3.458
				c-1.193-1.293-2.452-2.525-3.693-3.773c-2.739-2.754-5.514-5.474-8.217-8.263c-25.259-26.065-31.91-28.539-34.737-27.363
				c-7.784,3.237-2.021,16.563,1.967,21.25c5.639,6.627,11.463,10.265,18.325,15.615C648.633,203.857,658.48,212.324,658.48,212.324
				z"/>
		</g>
		<g>
			<g>
				<path style="fill:#FF9B73;stroke:#EF714B;stroke-width:0.7925;stroke-miterlimit:10;" d="M633.035,122.288
					c0.419,3.942-0.921,7.343-2.561,11.174c-3.763,8.791-10.15,16.399-19.778,21.778c-1.223,0.683-2.388,1.51-3.76,1.841
					c-3.431,0.827-6.18-1.71-8.052-4.185c-2.648-3.501-4.458-7.581-5.292-11.829c-0.378-1.926-0.787-3.946-0.092-5.779
					c0.644-1.697,0.611-3.604,0.273-5.363c-0.513-2.663-0.568-5.39-0.157-8.062c0.348-2.261,0.76-4.939,1.499-7.083
					c1.683-4.879,7.123-8.706,12.066-9.996c5.708-1.49,12.09-0.251,16.925,3.104c0.392,0.272,0.775,0.558,1.146,0.856
					c3.609,2.898,6.417,7.032,7.434,11.472C632.847,120.919,632.963,121.609,633.035,122.288z"/>
				<path style="opacity:0.5;fill:#FF9B73;" d="M595.88,115.359c0.005,0.065,0.024,0.125,0.033,0.189
					c1.658,2.347,3.296,4.712,5.03,6.99c0.659,0.747,1.307,1.504,1.958,2.27c2.812,3.309,5.772,6.189,9.529,8.42
					c3.793,2.252,8.116,4.041,12.609,3.639c1.389-0.124,2.728-0.446,4.018-0.898c0.274-0.588,0.557-1.169,0.81-1.773
					c1.692-4.05,2.956-7.458,2.575-11.318c-0.068-0.69-0.179-1.392-0.331-2.086c-0.938-4.314-3.566-8.52-7.209-11.54
					c-0.36-0.298-0.732-0.584-1.115-0.86c-3.746-2.677-8.331-3.961-12.794-3.668c-1.244,0.082-2.478,0.286-3.682,0.615
					c-4.329,1.186-9.714,4.711-11.599,9.688C595.802,115.103,595.868,115.213,595.88,115.359z"/>
			</g>
			<g>
				<path style="fill:#723A24;" d="M643.948,122.664c2.368,4.644,2.507,10.742,1.617,15.599c-0.956,5.221-2.996,10.169-4.822,15.154
					c-1.667,4.55-4.847,11.524-2.967,16.247c-2.842-0.677-4.813-3.755-5.59-6.386c-0.842-2.851-0.737-5.884-0.625-8.855
					c-0.478,0.412-0.955,0.823-1.433,1.235c-0.606-5.892-2.095-11.664-2.763-17.549c-0.556-4.904-0.963-10.394,0.556-15.171
					c0.945-2.971,2.997-5.774,6.188-6.401C638.31,115.712,642.171,119.178,643.948,122.664z"/>
				<path style="fill:#602517;" d="M629.107,148.754c5.31-2.252,8.458-7.821,9.462-13.394c1.205-6.688-2.139-13.184-6.733-17.91
					c-1.914,1.203-3.218,3.296-3.915,5.487c-1.519,4.777-1.112,10.266-0.556,15.171
					C627.771,141.681,628.478,145.212,629.107,148.754z"/>
				<g>
					<g>
						<path style="fill:#BF9DB4;" d="M639.296,120.367c5.014,5.019,6.306,11.281,4.654,18.059c-0.046,0.191,0.243,0.334,0.331,0.14
							c2.809-6.158,0.49-14.309-4.631-18.553C639.406,119.811,639.064,120.135,639.296,120.367L639.296,120.367z"/>
					</g>
				</g>
				<g>
					<g>
						<path style="fill:#BF9DB4;" d="M639.044,123.231c3.471,9.133,3.239,18.212-0.241,27.287c-0.075,0.196,0.241,0.326,0.338,0.142
							c4.401-8.339,4.319-19.14,0.168-27.541C639.237,122.975,638.985,123.077,639.044,123.231L639.044,123.231z"/>
					</g>
				</g>
				<g>
					<g>
						<path style="fill:#BF9DB4;" d="M634.632,147.674c-1.967,5.599-2.231,13.303,0.768,18.619c0.145,0.257,0.525,0.08,0.464-0.195
							c-0.681-3.063-1.644-5.902-1.795-9.082c-0.149-3.122,0.31-6.184,1.018-9.216C635.156,147.502,634.732,147.39,634.632,147.674
							L634.632,147.674z"/>
					</g>
				</g>
				<g>
					<g>
						<path style="fill:#BF9DB4;" d="M630.644,150.53c0.453-1.599,0.799-3.194,1.474-4.725c0.609-1.38,1.525-2.551,2.213-3.878
							c0.092-0.177-0.125-0.344-0.273-0.211c-2.216,1.984-3.61,5.868-3.563,8.793C630.496,150.595,630.62,150.614,630.644,150.53
							L630.644,150.53z"/>
					</g>
				</g>
			</g>
			<g>
				<path style="fill:none;stroke:#EF714B;stroke-width:0.7924;stroke-linecap:round;stroke-miterlimit:10;" d="M601.935,134.839
					c0.057,2.051-0.477,4.114-1.523,5.879c-0.403,0.682-0.903,1.426-0.723,2.197c0.201,0.862,1.139,1.301,1.965,1.618"/>
				<g>
					<g>
						<path style="fill:#723A24;" d="M615.721,132.129c-1.682-2.522-6.511-2.942-8.88-1.311c-0.292,0.201-0.172,0.788,0.233,0.72
							c1.511-0.253,2.916-0.598,4.461-0.385c1.431,0.198,2.586,0.921,3.926,1.354C615.672,132.575,615.833,132.297,615.721,132.129
							L615.721,132.129z"/>
					</g>
					<g>
						<path style="fill:#723A24;" d="M610.198,138.175c-2.099-0.261-1.698-3.524,0.405-3.263
							C612.703,135.172,612.301,138.436,610.198,138.175L610.198,138.175z"/>
					</g>
					<g>
						<path style="fill:#723A24;" d="M597.049,137.811c-2.1-0.261-1.698-3.524,0.405-3.263
							C599.553,134.808,599.152,138.072,597.049,137.811L597.049,137.811z"/>
					</g>
					<g>
						<path style="fill:#723A24;" d="M599.829,131.526c-0.753-1.221-2.078-1.756-3.48-1.874c-1.071-0.09-2.859-0.021-3.363,1.096
							c-0.106,0.234,0.013,0.488,0.262,0.555c0.962,0.259,1.978-0.374,2.991-0.367c1.209,0.008,2.34,0.414,3.491,0.736
							C599.813,131.695,599.871,131.593,599.829,131.526L599.829,131.526z"/>
					</g>
					<g>
						<g>
							<path style="fill:#EF714B;" d="M608.022,141.14c0.919,0.035,2.195-0.5,2.724-1.266c0.077-0.111-0.051-0.268-0.175-0.228
								c-0.454,0.146-0.824,0.432-1.237,0.663c-0.443,0.248-0.92,0.443-1.338,0.735C607.955,141.073,607.969,141.138,608.022,141.14
								L608.022,141.14z"/>
						</g>
					</g>
					<g>
						<g>
							<path style="fill:#EF714B;" d="M609.998,141.374c0.566-0.272,1.123-0.552,1.674-0.852c0.484-0.263,1.027-0.505,1.402-0.917
								c0.083-0.092,0.003-0.242-0.122-0.21c-0.54,0.139-1.005,0.505-1.464,0.811c-0.524,0.348-1.032,0.711-1.538,1.085
								C609.9,141.327,609.941,141.401,609.998,141.374L609.998,141.374z"/>
						</g>
					</g>
					<g>
						<g>
							<path style="fill:#EF714B;" d="M612.869,140.884c0.405-0.138,0.774-0.295,1.15-0.499c0.335-0.182,0.722-0.327,0.908-0.673
								c0.059-0.109-0.013-0.261-0.147-0.256c-0.397,0.015-0.689,0.289-1.005,0.513c-0.352,0.249-0.659,0.511-0.964,0.817
								C612.772,140.825,612.812,140.903,612.869,140.884L612.869,140.884z"/>
						</g>
					</g>
					<g>
						<g>
							<path style="fill:#EF714B;" d="M593.782,140.887c0.681-0.189,1.539-0.773,1.976-1.33c0.072-0.091,0.01-0.261-0.126-0.216
								c-0.674,0.223-1.53,0.844-1.942,1.427C593.648,140.827,593.717,140.905,593.782,140.887L593.782,140.887z"/>
						</g>
					</g>
					<g>
						<g>
							<path style="fill:#EF714B;" d="M594.865,141.22c0.764-0.673,1.747-1.061,2.499-1.735c0.082-0.073,0.022-0.249-0.097-0.233
								c-1.07,0.139-1.911,1.019-2.569,1.801C594.6,141.168,594.75,141.321,594.865,141.22L594.865,141.22z"/>
						</g>
					</g>
					<g>
						<g>
							<path style="fill:#EF714B;" d="M596.403,141.373c0.507-0.236,0.955-0.576,1.397-0.915c0.409-0.313,0.828-0.607,1.161-1.005
								c0.107-0.127-0.024-0.311-0.179-0.232c-0.46,0.235-0.841,0.578-1.236,0.907c-0.43,0.357-0.861,0.721-1.205,1.164
								C596.305,141.338,596.348,141.399,596.403,141.373L596.403,141.373z"/>
						</g>
					</g>
				</g>
				<g>
					<g>
						<path style="fill:#EF714B;" d="M601.028,149.018c0.756,0.638,1.804,0.841,2.777,0.842c0.845,0,2.125-0.052,2.557-0.886
							c0.101-0.194,0.011-0.41-0.195-0.479c-0.752-0.254-1.587,0.231-2.362,0.29c-0.891,0.067-1.738-0.123-2.621-0.143
							C601.003,148.637,600.879,148.892,601.028,149.018L601.028,149.018z"/>
					</g>
				</g>
			</g>
			<g>
				<path style="fill:#723A24;" d="M622.253,136.949c0.917,0.251,2.021,0.165,2.541,1.124c0.32,0.59,0.21,1.31,0.091,1.97
					c-0.254,1.414-0.508,2.827-0.763,4.241c-0.063,0.352-0.378,3.518-0.568,3.61c4.766-2.318,8.73-6.128,10.616-11.144
					c3.761-10.005,0.065-22.031-8.227-28.686c-3.93-3.155-8.936-5.088-14.008-4.958c-6.859,0.176-13.604,1.577-15.908,8.017
					c-1.218,3.405,2.956,7.168,5.211,9.757c2.728,3.132,5.757,6.007,9.022,8.568c2.522,1.979,5.189,3.774,7.976,5.357
					c1.18,0.67,2.424,1.494,3.667,2.023C622.015,136.877,622.132,136.916,622.253,136.949z"/>
				<g>
					<path style="fill:#FF9B73;stroke:#EF714B;stroke-width:0.7925;stroke-linecap:round;stroke-miterlimit:10;" d="
						M623.193,137.115c0.62-1.662,2.32-3.29,3.988-3.864c3.041-1.045,4.562,1.986,3.933,4.566c-0.822,3.373-3.63,7.704-7.639,7.07"
						/>
					<path style="fill:none;stroke:#EF714B;stroke-width:0.7925;stroke-linecap:round;stroke-miterlimit:10;" d="M628.542,137.613
						c0.418-0.659,0.019-1.641-0.635-1.751c-1.647-0.277-2.623,2.152-2.825,3.44c0.752-0.149,1.116,0.743,0.806,1.344
						c-0.307,0.596-1.061,0.988-1.713,1.037"/>
				</g>
				<path style="fill:#723A24;" d="M591.919,138.003c-0.811-2.043-1.574-3.979-1.867-6.239c-0.318-2.46-0.324-4.974-0.108-7.451
					c0.231-2.647,0.813-5.268,1.739-7.764c0.782-2.108,1.32-3.958,2.802-5.719c0.467-0.555,1.088-1.123,1.809-1.037
					c2.816,0.336,2.247,7.609,2.137,9.447c-0.23,3.833-1.182,7.626-2.822,11.1c-1.311,2.778-3.176,6.286-3.473,8.414
					C592.022,138.465,592.031,138.286,591.919,138.003z"/>
				<g>
					<g>
						<path style="fill:#BF9DB4;" d="M600.382,112.16c3.781,5.59,8.396,11.578,14.316,15.041c0.116,0.068,0.245-0.093,0.145-0.188
							c-2.424-2.285-5.095-4.264-7.445-6.643c-2.53-2.56-4.909-5.282-6.971-8.236C600.407,112.108,600.363,112.133,600.382,112.16
							L600.382,112.16z"/>
					</g>
				</g>
				<g>
					<g>
						<path style="fill:#BF9DB4;" d="M600.401,116.424c4.342,7.482,11.706,13.971,20.213,16.164
							c0.187,0.048,0.328-0.243,0.137-0.324c-8.267-3.537-15.175-8.337-20.262-15.891
							C600.453,116.319,600.368,116.367,600.401,116.424L600.401,116.424z"/>
					</g>
				</g>
				<g>
					<g>
						<path style="fill:#BF9DB4;" d="M611.669,104.621c7.966,0.278,14.308,4.986,18.575,11.405c0.108,0.162,0.333,0.023,0.257-0.15
							c-3.212-7.259-11.204-11.232-18.831-11.291C611.645,104.585,611.646,104.62,611.669,104.621L611.669,104.621z"/>
					</g>
				</g>
				<g>
					<g>
						<path style="fill:#BF9DB4;" d="M621.034,109.07c5.287,4.043,8.574,9.366,11.661,15.136c0.071,0.133,0.289,0.042,0.245-0.103
							c-1.902-6.256-6.699-11.326-11.881-15.076C621.033,109.007,621.008,109.05,621.034,109.07L621.034,109.07z"/>
					</g>
				</g>
				<g>
					<g>
						<path style="fill:#BF9DB4;" d="M595.586,114.094c-0.548,5.823-1.578,11.264-3.333,16.843c-0.043,0.137,0.158,0.183,0.21,0.058
							c2.179-5.244,3.358-11.214,3.196-16.901C595.658,114.046,595.591,114.048,595.586,114.094L595.586,114.094z"/>
					</g>
				</g>
				<g>
					<g>
						<path style="fill:#BF9DB4;" d="M594.092,112.693c-1.261,5.176-1.876,10.722-2.452,16.019
							c-0.011,0.105,0.165,0.129,0.185,0.025c0.998-5.23,2.03-10.715,2.338-16.034C594.166,112.661,594.102,112.653,594.092,112.693
							L594.092,112.693z"/>
					</g>
				</g>
				<g>
					<g>
						<path style="fill:#BF9DB4;" d="M604.59,107.284c10.368,3.559,16.042,13.436,21.452,22.211c0.074,0.12,0.298,0.041,0.239-0.101
							c-3.908-9.273-11.893-18.951-21.675-22.167C604.57,107.216,604.555,107.272,604.59,107.284L604.59,107.284z"/>
					</g>
				</g>
				<g>
					<g>
						<path style="fill:#BF9DB4;" d="M610.419,104.797c3.994,1.177,6.885,3.926,9.42,7.095c0.104,0.13,0.294-0.036,0.222-0.171
							c-1.96-3.711-5.715-5.874-9.623-6.994C610.394,104.715,610.375,104.784,610.419,104.797L610.419,104.797z"/>
					</g>
				</g>
			</g>
		</g>
	</g>
	<g>
		<g>
			<g>
				<path style="fill:#352C38;" d="M193.782,216.116c0,0-1.759,8.706-4.925,8.794c-0.044,0.001-0.078-0.017-0.12-0.019l-23.277-3.21
					l1.719-15.728l24.845,2.073C194.573,208.113,193.694,215.324,193.782,216.116z"/>
			</g>
			<g>
				<g>
					
						<path style="fill:#FF9B73;stroke:#EF714B;stroke-width:0.9744;stroke-linecap:round;stroke-linejoin:round;stroke-miterlimit:10;" d="
						M159.99,214.741c0.082-3.016,0.899-6.289,2.699-8.766l27.75,5.996c3.045,0.855,6.218,1.159,9.185-0.136
						c3.232-1.411,6.12-3.773,9.683-4.309c2.978-0.448,5.996,0.493,8.749,1.737c0.482,0.218,0.754,0.817,0.665,1.334
						c-0.093,0.54-0.665,0.646-1.123,0.632c-1.48-0.048-2.404-0.568-3.899-0.747c-1.044-0.125-1.992-0.607-4.271,0.22
						c1.66-0.69,2.781-0.496,4.5-0.149c1.528,0.308,3.701,1.449,5.187,1.974c0.48,0.17,1.091,0.539,1.176,1.047
						c0.086,0.511-0.394,0.973-0.897,1.064c-0.503,0.091-1.012-0.081-1.5-0.233c-0.509-0.158-3.12-1.046-5.591-1.358
						c-1.597-0.202-2.467,0.439-2.805,0.378c0.206,0.042,1.03-0.675,2.784-0.473c2.039,0.234,4.149,1.084,4.384,1.151
						c0.558,0.158,1.126,0.353,1.558,0.744c0.433,0.391,0.699,1.027,0.506,1.58c-0.199,0.573-0.636,0.896-1.672,0.415
						c-0.545-0.253-0.943-0.443-1.523-0.597c-1.024-0.272-2.419-0.71-3.476-0.767c-1.145-0.062-1.695,0.184-2.646,0.592
						c1.147-0.531,1.42-0.605,2.66-0.607c0.618-0.002,1.612,0.328,2.105,0.483c0.636,0.199,1.288,0.852,1.378,1.521
						c0.082,0.606-0.531,0.75-1.124,0.858c-0.593,0.109-1.629-0.185-2.208-0.354c-0.947-0.276-1.749,0.314-2.446,0.865
						c-0.979,0.773-1.985,1.519-3.083,2.112c-1.406,0.759-2.987,1.26-4.579,1.168c-1.037-0.06-2.044-0.367-3.063-0.571
						c-1.179-0.235-2.384-0.331-3.584-0.288c-1.207,0.043-23.475-1.249-29.363-1.835c-1.981-0.197-3.964-0.402-5.945-0.62
						C159.983,217.361,159.957,215.93,159.99,214.741z"/>
					
						<path style="fill:#FF9B73;stroke:#EF714B;stroke-width:0.9744;stroke-linecap:round;stroke-linejoin:round;stroke-miterlimit:10;" d="
						M203.635,218.869c1.391-0.073,2.708-0.972,3.298-2.252c0.38-0.825,0.467-1.759,0.792-2.608c1.03-2.688,4.099-3.888,5.91-6.109
						c-0.499-0.569-1.302-0.786-2.049-0.726c-0.747,0.06-1.453,0.363-2.127,0.693c-2.972,1.458-4.65,2.621-7.199,5.008"/>
				</g>
			</g>
			<g>
				<path style="fill:#FFFFFF;" d="M187.475,210.881l3.956,0.862c0,0-1.319-0.203-1.725,2.232c-0.405,2.434,0,8.115,0,8.115
					s-4.159,0.539-5.173-0.948c-1.014-1.487,2.739-10.007,2.739-10.007L187.475,210.881z"/>
			</g>
			<g>
				<path style="fill:#352C38;" d="M131.479,166.778c0.152,0.243,0.306,0.477,0.457,0.732c2.815,4.749,34.26,41.149,34.26,41.149
					l-0.703,7.035l-11.377,5.904c-5.389-5.527-10.624-11.219-15.711-17.023c-3.793-4.328-7.532-8.729-10.933-13.375
					c-1.78-2.432-3.433-5.213-4.242-8.209c-0.909-3.368-0.4-6.677,0.084-10.071c0.243-1.702,0.569-3.707,1.787-5.016
					C126.584,166.308,129.511,166.131,131.479,166.778z"/>
			</g>
			<g>
				<g>
					<g>
						<path style="fill:#352C38;" d="M161.113,205.024c3.869-0.528,30.911,3.001,30.911,3.001c-2.55-0.088-3.605,2.638-4.485,5.189
							c-0.867,2.515-1.812,11.512,1.198,11.676l-0.055,0.283c0,0-33.247-2.256-34.566-3.575c-1.319-1.319,0.314-4.79,0.226-9.979
							C154.254,206.431,157.244,205.551,161.113,205.024z"/>
					</g>
				</g>
			</g>
			<g>
				<g>
					<path style="fill:#352C38;" d="M157.635,209.726c0.494-1.01,1.775-2.112,2.742-2.633c0.503-0.271,1.059-0.475,1.621-0.583
						c0.551-0.107,0.954,0.004,1.347-0.429c0.138-0.152,0.142-0.372,0-0.524c-0.84-0.901-2.828,0.118-3.654,0.672
						c-0.548,0.368-1.053,0.807-1.462,1.327c-0.535,0.681-0.581,1.284-0.805,2.082C157.39,209.76,157.577,209.846,157.635,209.726
						L157.635,209.726z"/>
				</g>
			</g>
			<g>
				<g>
					<path style="fill:#352C38;" d="M156.149,206.152c0.829,0.507,2.109-0.168,2.994-0.333c0.76-0.141,1.527-0.225,2.299-0.238
						c0.748-0.013,1.39,0.13,2.089-0.145c0.327-0.129,0.402-0.537,0.097-0.741c-1.158-0.776-3.02-0.394-4.326-0.159
						c-0.955,0.172-2.914,0.469-3.156,1.608C156.145,206.148,156.146,206.151,156.149,206.152L156.149,206.152z"/>
				</g>
			</g>
		</g>
		<g>
			<g>
				<g>
					<rect x="132.758" y="433.069" style="fill:#534A56;" width="12.922" height="13.588"/>
					<path style="fill:#4F4454;" d="M140.055,443.583c1.319-1.688,2.682-3.34,4.023-5.009c0.72-0.897,2.089-2.148,3.231-1.103
						c0.985,0.901,1.251,2.79,2.077,3.882c0.888,1.175,2.192,1.922,3.473,2.604c4.615,2.456,9.569,3.886,14.109,6.497
						c1.625,0.934,3.896,1.081,4.514,3.035c0.737,2.331-0.66,4.655-2.588,4.847c-1.598,0.159-3.207,0.218-4.814,0.176
						c-2.858-0.074-5.719-0.467-8.478-1.273c-2.698-0.788-5.299-1.97-8.055-2.487c-3.935-0.738-9.765-0.45-13.658-1.522
						c-2.914-0.199-2.215-3.243-2.455-6.635c-0.128-1.805-0.199-4.187,0.789-5.764c0.165-0.22,0.261-0.466,1.287-1.017
						c-0.131,1.634,1.067,4.829,2.474,5.484C137.791,446.14,139.019,444.909,140.055,443.583z"/>
					<path style="fill:#352C38;" d="M139.758,441.185c1.319-1.688,2.682-3.34,4.023-5.01c0.72-0.897,2.089-2.148,3.231-1.103
						c0.985,0.901,1.252,2.79,2.077,3.882c0.888,1.175,2.192,1.922,3.473,2.604c4.615,2.456,9.569,3.886,14.109,6.497
						c1.625,0.934,4.184,2.598,4.802,4.552c0.737,2.331-0.948,3.138-2.876,3.33c-1.598,0.159-3.207,0.217-4.814,0.176
						c-2.858-0.074-5.719-0.467-8.478-1.273c-2.698-0.788-5.268-2.24-8.055-2.487c-6.06-0.537-11.858-0.253-13.658-1.522
						c-2.914-0.199-2.215-3.243-2.455-6.635c-0.128-1.805-0.2-4.187,0.789-5.764c0.165-0.22,0.261-0.466,1.287-1.017
						c-0.131,1.634,1.067,4.829,2.474,5.485C137.494,443.741,138.722,442.511,139.758,441.185z"/>
					<path style="fill:#4F4454;" d="M153.307,442.249c-0.785,0.134-1.52,0.271-2.173,0.734c-0.637,0.453-0.854,1.234-1.54,1.602
						c-0.263,0.141-0.527,0.001-0.632-0.238c-0.425-0.967,0.715-1.98,1.515-2.441c0.846-0.488,2.019-0.69,2.897-0.161
						C153.568,441.862,153.572,442.204,153.307,442.249L153.307,442.249z"/>
					<path style="fill:#4F4454;" d="M156.602,444.198c-0.531,0.201-1.031,0.54-1.416,0.936c-0.403,0.414-0.64,0.928-1.036,1.345
						c-0.151,0.159-0.394,0.196-0.606,0.154c-0.051-0.01-0.104-0.034-0.149-0.058c-0.177-0.093-0.33-0.306-0.311-0.504
						c0.135-1.467,1.779-2.603,3.219-2.871C157.01,443.068,157.257,443.951,156.602,444.198L156.602,444.198z"/>
				</g>
				<path style="fill:#352C38;" d="M150.009,435.866c-0.411,2.808-19.574,3.666-19.597,2.076
					c-0.169-15.739-2.616-83.998-2.616-83.998s-7.16-35.881-10.094-47.288c-3.274-12.729-5.649-25.771-9.467-38.343
					c-1.994-6.567-4.088-13.379-3.224-20.172c0.865-6.793,5.65-13.549,12.263-14.066c6.233-0.487,12.49,3.33,15.581,8.786
					c2.091,3.691,3.17,7.878,4.225,12.005c4.434,17.344,14.371,86.779,15.596,95.331
					C154.849,365.369,148.253,378.672,150.009,435.866z"/>
				<path style="opacity:0.3;fill:#352C38;" d="M118.515,286.601c2.348,12.976,4.199,26.254,5.109,39.4
					c0.239,3.454,0.398,6.921,0.6,10.385c-2.232-10.8-4.969-23.693-6.522-29.73c-1.281-4.979-2.424-10.006-3.57-15.034
					C115.482,289.835,117.005,288.255,118.515,286.601z"/>
				<g>
					<g>
						<path style="fill:#352C38;" d="M119.184,275.419c-0.732,1.835-0.398,4.031-0.366,5.984c0.036,2.171,0.642,4.975-0.85,6.729
							c-0.262,0.308-0.017,0.791,0.401,0.689c1.782-0.432,1.762-2.408,1.728-3.934c-0.064-2.905,0.405-6.82-0.837-9.479
							C119.244,275.372,119.196,275.389,119.184,275.419L119.184,275.419z"/>
					</g>
				</g>
			</g>
			<g>
				<path style="fill:#4F4454;" d="M85.436,422.687c0.135-4.554,5.046-7.263,8.884-4.745c0.029,0.019,0.057,0.038,0.086,0.057
					c1.022,0.687,1.974,1.573,2.75,2.579c1.13,1.466,1.524,3.37,1.15,5.135c-0.424,1.999-0.848,3.998-1.271,5.997
					c-0.661,3.119-2.176,16.499-8.684,15.716c-4.112-0.397-2.982-13.575-3.005-16.97C85.328,427.751,85.363,425.173,85.436,422.687z
					"/>
				<path style="fill:#352C38;" d="M99.218,437.407c-1.379,1.105-18.453,1.197-18.359-0.356c0.988-15.372,2.361-70.886,4.457-84.068
					c0.277-1.743,0.165-8.123,0.416-9.894c1.623-11.457-0.374-22.722-0.188-34.335c0.208-12.959-0.396-30.849-0.754-43.803
					c-0.187-6.766-0.406-13.792,2.225-20.017c2.63-6.225,12.063-10.846,18.578-9.588c6.141,1.186,11.166,6.466,12.705,12.467
					c1.041,4.06,0.974,8.322,0.901,12.522c-0.309,17.65-9.094,81.953-8.494,90.417C107.615,369.374,101.665,381.436,99.218,437.407z
					"/>
				<g>
					<g>
						<path style="fill:#352C38;" d="M116.356,276.714c-0.63,1.682-0.419,3.622-0.438,5.402c-0.022,2.092-0.115,4.212,0.153,6.289
							c0.054,0.417,0.596,0.418,0.65,0c0.268-2.075,0.175-4.199,0.153-6.289c-0.019-1.793,0.197-3.708-0.438-5.402
							C116.422,276.674,116.371,276.674,116.356,276.714L116.356,276.714z"/>
					</g>
				</g>
				<g>
					<path style="fill:#4F4454;" d="M79.196,450.474c0.806-1.4,1.764-2.509,2.282-4.029c0.722-2.119,0.41-4.073,0.858-6.156
						c1.018-4.729,11.506-3.605,14.289-1.887c0.048,0.03,0.082,0.066,0.128,0.097c0.11,1.112,0.407,2.194,0.621,3.305
						c0.2,1.038,0.329,2.079,0.498,3.115c-0.297,0.878-0.709,1.723-0.884,2.633c-0.189,0.982,0.273,2.377,0.557,3.172
						c0.056,2.316-0.12,3.794,0.105,5.909c-0.455,0.811-1.044,1.56-1.638,2.153c-1.579,1.576-3.622,2.706-5.635,3.815
						c-1.875,1.033-3.944,2.105-6.127,1.855c-2.073-0.238-3.772-1.652-4.85-3.261C77.243,457.976,77.296,453.774,79.196,450.474z"/>
					<path style="fill:#352C38;" d="M94.719,435.765c-2.661-1.717-11.596-3.064-12.573,1.666c-0.43,2.084-0.133,4.037-0.825,6.156
						c-0.496,1.52-1.413,2.63-2.185,4.03c-1.819,3.301-1.873,7.503,0.189,10.721c1.03,1.608,2.654,3.022,4.637,3.258
						c2.088,0.249,4.067-0.825,5.861-1.858c1.926-1.109,3.88-2.241,5.392-3.818c1.303-1.359,2.619-3.515,2.291-5.43
						c-0.352-2.058-1.77-3.53-1.351-5.805c0.206-1.117,0.766-2.134,1.026-3.239C97.798,438.838,96.585,436.969,94.719,435.765z"/>
					<g>
						<path style="fill:#4F4454;" d="M93.501,446.03c-1.289-0.907-2.513-1.852-4.172-2.071c-1.824-0.241-3,0.708-4.604,1.179
							c-0.522,0.154-0.825-0.471-0.593-0.838c2.116-3.352,8.483-1.878,9.721,1.442C93.925,445.935,93.716,446.18,93.501,446.03
							L93.501,446.03z"/>
					</g>
					<g>
						<path style="fill:#4F4454;" d="M93.183,447.569c-1.741-0.135-3.435-0.418-5.189-0.297c-1.547,0.107-3.115,0.827-4.633,0.685
							c-0.416-0.039-0.547-0.492-0.271-0.757c1.153-1.107,3.232-1.211,4.808-1.291c1.864-0.095,3.772,0.062,5.466,0.837
							C93.792,446.942,93.731,447.611,93.183,447.569L93.183,447.569z"/>
					</g>
				</g>
			</g>
			<path style="opacity:0.15;fill:#352C38;" d="M136.752,273.784c-1.436,1.939-3.131,4.346-5.63,4.91
				c-2.203,0.498-4.695-0.009-6.923-0.086c-4.044-0.14-8.096-0.149-12.142-0.23c-8.085-0.164-16.427-0.069-24.43-1.335
				c-0.822-0.13-1.659-0.275-2.505-0.423c-0.114-4.126-0.232-8.089-0.331-11.668c-0.187-6.766-0.406-13.792,2.225-20.017
				c2.631-6.225,12.063-10.846,18.577-9.588c1.718,0.332,3.343,0.993,4.835,1.892c1.913-1.77,4.234-2.958,6.847-3.162
				c6.234-0.487,12.49,3.33,15.581,8.786c2.091,3.691,3.169,7.877,4.225,12.004c0.816,3.191,1.818,8.148,2.918,14.16
				C138.974,270.651,137.895,272.241,136.752,273.784z"/>
		</g>
		<g>
			<g>
				<g>
					
						<path style="fill:#FF9B73;stroke:#EF714B;stroke-width:0.884;stroke-linecap:round;stroke-linejoin:round;stroke-miterlimit:10;" d="
						M127.555,141.907c0,0-2.596,9.383-2.369,10.486c0.227,1.102,0.419,7.807,0.419,7.807l-18.846-13.352l2.524-9.521l1.625-15.632
						L127.555,141.907z"/>
				</g>
			</g>
			<g>
				<path style="fill:#CCCCCC;" d="M119.432,150.582c0,0,7.915,2.902,9.365,7.387c1.451,4.485,4.377,11.076,5.672,15.697
					c1.296,4.62,9.234,43.793-3.957,34.032c-13.19-9.761-22.292-49.993-22.556-51.048
					C107.692,155.595,119.432,150.582,119.432,150.582z"/>
			</g>
			<g>
				<path style="fill:#FFFFFF;" d="M124.708,151.857l-3.694,6.508c0,0-11.432-16.532-14.949-17.764
					c-3.518-1.231-0.352-2.814-0.352-2.814L124.708,151.857z"/>
			</g>
			<g>
				<path style="fill:#FFFFFF;" d="M124.708,151.857l0.879-1.056l5.276,9.146c0,0-0.18-0.13-0.478-0.352
					c-1.396-1.035-5.388-4.055-5.678-4.924C124.356,153.617,124.708,151.857,124.708,151.857z"/>
			</g>
			<g>
				<path style="fill:#ED1C24;" d="M128.049,159.596h-3.341c0,0-2.477-3.374-2.057-4.115c0.421-0.741-0.196-4.949,2.057-3.624
					C126.96,153.182,128.049,159.596,128.049,159.596z"/>
			</g>
			<g>
				<path style="fill:#ED1C24;" d="M128.03,159.739c0,0,9.638,29.02,9.037,35.676l-1.769,7.31l-0.773-2.138
					c0,0-7.702-33.365-8.196-35.705c-0.495-2.341-1.627-5.445-1.627-5.445L128.03,159.739z"/>
			</g>
			<g>
				<path style="fill:#352C38;" d="M104.405,144.295c0,0-16.104,11.96-17.335,15.301c-1.231,3.341,1.759,36.582,3.342,45.552
					c1.583,8.969-5.804,39.748-5.804,46.959c0,7.211-0.527,18.115-0.527,18.115s40.803,2.286,43.969,2.111
					c1.828-0.102,6.822-5.898,6.822-5.898s4.676,5.559,8.638,4.106c-3.081-21.197-5.73-77.244-5.73-77.244l-2.423,9.252
					l-20.147-50.948L104.405,144.295z"/>
			</g>
			<g style="opacity:0.3;">
				<path style="fill:#352C38;" d="M90.412,205.148c-1.583-8.97-4.573-42.211-3.342-45.552c0.006-0.016,0.018-0.036,0.024-0.052
					c4.395-0.216,9.224,0.361,13.138,1.878c3.747,1.452,3.565,5.468,3.791,8.892c0.684,10.332,0.423,20.716,0.214,31.059
					c-0.105,5.225-0.229,10.452-0.214,15.679c0.014,4.785,0.794,9.113,1.778,13.771c2.147,10.165,3.089,20.527,4.646,30.788
					c0.513,3.382,1.078,6.742,1.636,10.099c-12.611-0.625-28.003-1.487-28.003-1.487s0.527-10.904,0.527-18.115
					C84.607,244.896,91.994,214.117,90.412,205.148z"/>
			</g>
			<g>
				<path style="fill:#534A56;" d="M100.26,145.35l4.144-6.507c0,0,9.75,6.155,15.554,13.718
					c5.804,7.563,15.398,50.519,15.398,50.519l-21.378-47.001l0.88-2.638l-3.342-0.351L100.26,145.35z"/>
			</g>
			<g>
				<path style="fill:#534A56;" d="M132.43,161.984l-4.863-4.559c0,0,4.438,11.381,6.022,18.24c1.583,6.859,1.71,27.296,1.71,27.296
					l2.535-9.846C137.834,193.116,135.567,173.914,132.43,161.984z"/>
			</g>
			<g>
				<g>
					<path style="fill:#352C38;" d="M135.198,201.42c-1,4.915-0.548,10.28-0.506,15.271c0.047,5.566,0.197,11.13,0.344,16.694
						c0.143,5.416,0.29,10.832,0.372,16.25c0.084,5.535-0.187,11.107,0.019,16.634c0.027,0.736,1.074,0.721,1.133,0
						c0.438-5.339,0.145-10.823,0.05-16.175c-0.098-5.571-0.266-11.14-0.431-16.709c-0.16-5.411-0.316-10.823-0.432-16.235
						c-0.111-5.173,0.352-10.611-0.449-15.73C135.291,201.369,135.208,201.371,135.198,201.42L135.198,201.42z"/>
				</g>
			</g>
		</g>
		<g>
			<g>
				
					<path style="fill:#FF9B73;stroke:#EF714B;stroke-width:0.884;stroke-linecap:round;stroke-linejoin:round;stroke-miterlimit:10;" d="
					M108.948,119.773c-0.951-5.948-1.955-12.001-3.513-17.858c1.649-2.397,3.779-4.504,6.279-6.179
					c2.864-1.918,6.346-2.719,9.771-2.571c2.633,0.114,5.249,0.753,7.636,1.896c4.408,2.111,7.266,5.988,9.266,10.358
					c2.081,4.548,3.242,9.825,2.214,14.781c-0.216,1.041-0.546,2.091-0.404,3.147c0.119,0.887,0.566,1.714,0.621,2.607
					c0.049,0.794-0.218,1.568-0.48,2.316c-1.702,4.853-3.282,9.82-6.813,13.683c-1.022,1.118-2.249,2.172-3.742,2.411
					c-2.282,0.366-4.835-1.232-6.486-2.693c-2.381-2.108-4.75-4.23-7.125-6.344c-0.904-0.805-1.892-1.812-1.761-3.015"/>
				<path style="fill:#EF714B;" d="M104.942,102.042c-0.037-0.14-0.01-0.289,0.071-0.409c1.707-2.48,3.865-4.605,6.414-6.312
					c2.798-1.874,6.381-2.82,10.08-2.658c2.711,0.117,5.421,0.789,7.836,1.945c4.012,1.923,7.122,5.391,9.508,10.604
					c1.134,2.48,2.297,5.831,2.576,9.517c-7.549-1.564-14.032-7.089-21.74-7.517c0.402,3.768,1.213,7.856-1.124,11.223
					c-0.716,1.031-1.633,1.899-2.183,3.036c-0.715,1.477-1.389,2.975-2.084,4.462c-0.142,0.304-0.385,0.663-0.719,0.599
					c-0.352-0.067-0.423-0.527-0.414-0.88c0.028-1.064,0.056-2.128,0.084-3.192c0.014-0.536,0.025-1.091-0.182-1.588
					c-0.165-0.396-0.772-1.117-1.187-0.734c-0.386,0.357-0.544,1.678-0.693,2.184c-0.155,0.531-0.291,1.066-0.43,1.601l-1.611-3.699
					c-0.039,0.016-0.075,0.037-0.119,0.043c-0.257,0.043-0.539-0.143-0.582-0.418C107.426,113.483,106.46,107.747,104.942,102.042z"
					/>
				<path style="fill:#352C38;" d="M142.646,113.516c-0.268-0.037-0.534-0.082-0.796-0.133c-7.664-1.487-14.207-7.144-22.006-7.577
					c0.402,3.768,1.213,7.856-1.124,11.223c-0.716,1.031-1.633,1.899-2.183,3.036c-0.715,1.477-1.39,2.975-2.084,4.462
					c-0.142,0.304-0.385,0.663-0.719,0.599c-0.352-0.067-0.423-0.527-0.414-0.88c0.028-1.064,0.056-2.128,0.084-3.192
					c0.014-0.536,0.025-1.091-0.182-1.588c-0.165-0.396-0.772-1.117-1.187-0.734c-0.386,0.356-0.544,1.678-0.692,2.184
					c-0.453,1.549-0.836,3.118-1.152,4.699c-0.627,3.128-0.889,5.925-1.063,9.108c-0.491-1.552-7.098-19.009-8.94-22.963
					c-0.899-1.93-1.893-3.914-1.88-6.037s3.456-4.865,5.599-5.083c-0.719-4.078,1.711-8.306,5.3-10.457
					c3.589-2.152,8.094-2.443,12.197-1.553c4.103,0.89,7.877,2.865,11.464,5.018c2.918,1.752,5.912,3.823,7.184,6.947
					c-0.296-1.201,0.201-2.554,1.207-3.291c3.296,2.636,4.144,5.999,4.66,9.909c0.961-1.414,2.029-2.735,3.002-4.116
					c0.328,1.858,0.656,3.757,0.353,5.618c-0.303,1.862-1.36,3.713-3.11,4.477C145.072,113.672,143.842,113.681,142.646,113.516z"/>
			</g>
			<g>
				
					<path style="fill:none;stroke:#EF714B;stroke-width:0.884;stroke-linecap:round;stroke-linejoin:round;stroke-miterlimit:10;" d="
					M134.018,123.31c-0.306,1.685-0.129,3.459,0.505,5.054c0.245,0.616,0.56,1.296,0.315,1.909
					c-0.274,0.685-1.099,0.923-1.817,1.074"/>
				<g>
					<g>
						<path style="fill:#39222F;" d="M122.347,118.661c1.178-0.34,2.189-0.814,3.447-0.853c1.237-0.038,2.334,0.331,3.499,0.681
							c0.339,0.102,0.465-0.343,0.223-0.529c-1.927-1.479-5.638-1.452-7.347,0.396C122.049,118.486,122.166,118.714,122.347,118.661
							L122.347,118.661z"/>
					</g>
				</g>
				<g>
					<path style="fill:#39222F;" d="M126.876,123.896c1.746-0.18,1.453-2.914-0.295-2.735
						C124.835,121.341,125.127,124.076,126.876,123.896L126.876,123.896z"/>
				</g>
				<g>
					<path style="fill:#39222F;" d="M138.341,124.756c1.749,0.174,2.002-2.561,0.25-2.735
						C136.843,121.846,136.59,124.581,138.341,124.756L138.341,124.756z"/>
				</g>
				<g>
					<g>
						<path style="fill:#39222F;" d="M137.05,119.54c0.919-0.216,1.859-0.455,2.809-0.391c0.522,0.035,1.006,0.141,1.492,0.328
							c0.401,0.155,0.604,0.31,1.033,0.256c0.167-0.021,0.346-0.168,0.275-0.361c-0.341-0.938-1.753-1.142-2.643-1.168
							c-1.156-0.034-2.289,0.314-3.035,1.22C136.937,119.476,136.977,119.557,137.05,119.54L137.05,119.54z"/>
					</g>
				</g>
			</g>
			<g>
				<g>
					<path style="fill:#4F4454;" d="M128.538,119.328c-0.563-0.039-1.117-0.073-1.664-0.104c-1.227-0.069-2.224-0.101-3.136-0.102
						c-0.152,0-0.298,0.018-0.444,0.032l-0.011-0.018l-3.766-0.069l-0.164,2.907l1.068,0.13c-0.054,0.535-0.053,1.067-0.027,1.499
						c0.072,1.226,0.635,2.292,1.626,3.081c0.997,0.794,2.378,1.234,3.753,1.225c0.293-0.002,0.587-0.024,0.876-0.068
						c1.75-0.266,3.172-1.415,3.903-3.153c0.296-0.704,0.656-1.758,0.694-2.788C131.302,120.412,130.289,119.451,128.538,119.328z
						 M129.64,124.316c-0.604,1.437-1.719,2.347-3.14,2.563c-1.374,0.21-2.856-0.155-3.858-0.951
						c-0.769-0.612-1.205-1.436-1.261-2.382c-0.041-0.704-0.032-1.692,0.25-2.406c0.09-0.227,0.208-0.394,0.36-0.509
						c0.46-0.351,1.037-0.531,1.715-0.535c0.01,0,0.021,0,0.031,0c0.893,0,1.872,0.032,3.08,0.1c0.542,0.03,1.092,0.065,1.65,0.103
						c1.224,0.085,1.827,0.612,1.792,1.567C130.227,122.751,129.905,123.687,129.64,124.316z"/>
					<path style="fill:#4F4454;" d="M120.403,119.877c0.012,0.155-0.105,0.29-0.262,0.302c-0.157,0.012-0.294-0.103-0.307-0.258
						c-0.012-0.155,0.105-0.29,0.262-0.302C120.254,119.607,120.391,119.722,120.403,119.877z"/>
				</g>
				<g>
					<path style="fill:#4F4454;" d="M134.843,122.284c-0.071,1.027,0.142,2.114,0.334,2.846c0.473,1.807,1.62,3.103,3.149,3.557
						c0.253,0.075,0.511,0.13,0.772,0.163c1.222,0.159,2.493-0.129,3.46-0.81c0.962-0.677,1.57-1.675,1.759-2.886
						c0.067-0.427,0.122-0.955,0.129-1.493l0.962-0.014l0.149-2.907l-3.354-0.34l-0.012,0.017c-0.129-0.03-0.256-0.063-0.392-0.08
						c-0.811-0.099-1.7-0.174-2.798-0.239c-0.489-0.029-0.985-0.055-1.489-0.077C135.943,119.953,134.945,120.798,134.843,122.284z
						 M135.724,122.357c0.066-0.953,0.655-1.411,1.752-1.363c0.5,0.022,0.992,0.048,1.477,0.077
						c1.081,0.063,1.954,0.138,2.748,0.235c0.009,0.001,0.018,0.002,0.027,0.003c0.602,0.078,1.097,0.32,1.47,0.718
						c0.124,0.132,0.211,0.31,0.268,0.546c0.178,0.74,0.087,1.724-0.022,2.418c-0.146,0.934-0.617,1.705-1.363,2.23
						c-0.971,0.682-2.325,0.884-3.526,0.526c-1.241-0.368-2.139-1.394-2.53-2.888C135.855,124.205,135.663,123.239,135.724,122.357z
						"/>
					<path style="fill:#4F4454;" d="M144.686,121.451c-0.027,0.152,0.064,0.3,0.202,0.329c0.138,0.029,0.272-0.071,0.299-0.223
						c0.027-0.152-0.064-0.3-0.202-0.329C144.847,121.198,144.713,121.298,144.686,121.451z"/>
				</g>
				<path style="fill:#4F4454;" d="M130.31,121.316c1.551-0.912,3.542-1.033,5.195-0.312l-0.538,1.194
					c-1.269-0.553-2.793-0.462-3.976,0.236L130.31,121.316z"/>
				<polygon style="fill:#4F4454;" points="119.517,119.067 107.712,119.759 103.619,122.695 104.235,123.423 107.936,121.054 
					119.353,121.974 				"/>
			</g>
			<g>
				
					<path style="fill:#FF9B73;stroke:#EF714B;stroke-width:0.884;stroke-linecap:round;stroke-linejoin:round;stroke-miterlimit:10;" d="
					M111.295,129.063c-1.262-0.533-2.244-1.589-2.931-2.737c-1.163-1.942-2.654-5.144-1.618-7.39
					c0.598-1.298,2.227-1.986,3.635-1.659c1.908,0.443,2.866,2.126,2.728,3.927"/>
				
					<path style="fill:none;stroke:#EF714B;stroke-width:0.8809;stroke-linecap:round;stroke-linejoin:round;stroke-miterlimit:10;" d="
					M108.693,121.13c-0.025-0.368-0.05-0.743,0.041-1.1c0.091-0.357,0.318-0.701,0.664-0.841c0.387-0.156,0.85-0.021,1.166,0.25
					c1.09,0.935,0.717,2.586,0.616,3.816c-0.055,0.663-0.335,0.282-0.803,0.42c-0.443,0.13-0.774,0.566-0.775,1.022
					c-0.001,0.548,0.46,1.061,1.029,1.018"/>
			</g>
			<g>
				<g>
					<path style="fill:#EF714B;" d="M133.468,135.686c-0.683,0.068-1.365,0.152-2.052,0.093c-0.766-0.066-1.408-0.382-2.131-0.598
						c-0.589-0.176-0.821,0.602-0.39,0.924c1.252,0.938,3.418,0.914,4.714,0.1C133.824,136.07,133.76,135.657,133.468,135.686
						L133.468,135.686z"/>
				</g>
			</g>
		</g>
		<g>
			<g>
				<path style="fill:#EF714B;" d="M99.142,284.681c0.063,0,0.063-0.097,0-0.097C99.08,284.583,99.08,284.681,99.142,284.681
					L99.142,284.681z"/>
			</g>
		</g>
		<g>
			<g>
				<path style="fill:#EF714B;" d="M98.909,284.525c0.063,0,0.063-0.097,0-0.097C98.846,284.428,98.846,284.525,98.909,284.525
					L98.909,284.525z"/>
			</g>
		</g>
		<g>
			<g>
				
					<path style="fill:#FF9B73;stroke:#EF714B;stroke-width:0.9744;stroke-linecap:round;stroke-linejoin:round;stroke-miterlimit:10;" d="
					M90.022,276.503c0,0-1.197,3.927-0.955,7.679c0.242,3.752,0.57,5.388,0.57,5.388s-1.811-1.112-1.745-0.217
					c0.066,0.894-0.652,5.236,0.984,4.908c1.636-0.329,1.636-0.329,1.636-0.329s1.115,2.443,1.813,2.53
					c0.698,0.087,2.858-0.176,2.858-0.176s-1.046,1.288,1.07,1.374c2.116,0.086,3.903-1.464,3.903-1.464l3.011,0.02l2.782-6.75
					l-5.391-15.02L90.022,276.503z"/>
				<g>
					<g>
						<path style="fill:#EF714B;" d="M101.973,292.998c-0.51-0.059-0.857,0.74-1.078,1.097c-0.383,0.622-0.94,1.349-1.08,2.071
							c-0.073,0.375,0.359,0.665,0.655,0.381C100.748,296.282,102.465,293.055,101.973,292.998L101.973,292.998z"/>
					</g>
				</g>
				<g>
					<g>
						<path style="fill:#EF714B;" d="M92.741,291.275c-0.692,0.171-1.216,0.926-1.723,1.391c-0.497,0.455-1.429,0.908-1.611,1.583
							c-0.05,0.188,0.092,0.358,0.279,0.366c0.734,0.033,1.461-0.863,1.95-1.332c0.504-0.483,1.253-1.114,1.303-1.858
							C92.945,291.32,92.833,291.252,92.741,291.275L92.741,291.275z"/>
					</g>
				</g>
				<g>
					<g>
						<path style="fill:#EF714B;" d="M97.738,292.507c-0.704,0.18-1.193,0.96-1.615,1.511c-0.572,0.747-1.122,1.509-1.675,2.269
							c-0.397,0.545,0.518,1.08,0.907,0.53c0.529-0.749,1.068-1.492,1.574-2.256c0.375-0.566,0.947-1.28,0.895-1.988
							C97.821,292.528,97.783,292.495,97.738,292.507L97.738,292.507z"/>
					</g>
				</g>
				<g>
					<g>
						<path style="fill:#EF714B;" d="M104.245,289.887c-0.186,0.011-0.311-0.125-0.485-0.16c-0.176-0.036-0.381-0.008-0.56,0.002
							c-0.348,0.02-0.657,0.076-0.81,0.422c-0.031,0.071-0.029,0.144,0.026,0.203c0.256,0.271,0.554,0.24,0.887,0.141
							c0.172-0.051,0.377-0.094,0.533-0.183c0.149-0.085,0.253-0.28,0.422-0.33C104.308,289.968,104.301,289.883,104.245,289.887
							L104.245,289.887z"/>
					</g>
				</g>
				<g>
					<g>
						<path style="fill:#EF714B;" d="M100.183,289.638c-0.214-0.09-0.422-0.102-0.653-0.13c-0.165-0.02-0.34,0.107-0.42,0.241
							c-0.016,0.027-0.032,0.053-0.048,0.08c-0.06,0.099-0.06,0.231,0,0.33c0.016,0.027,0.032,0.053,0.048,0.08
							c0.08,0.134,0.254,0.261,0.42,0.241c0.231-0.028,0.439-0.04,0.653-0.13C100.53,290.203,100.531,289.784,100.183,289.638
							L100.183,289.638z"/>
					</g>
				</g>
				<g>
					<g>
						<path style="fill:#EF714B;" d="M96.805,289.799c-0.219,0.098-0.832-0.277-1.053-0.363c-0.36-0.14-0.605-0.376-1.006-0.289
							c-0.196,0.043-0.278,0.253-0.245,0.431c0.092,0.489,0.665,0.643,1.102,0.698c0.201,0.025,0.401,0.017,0.596-0.046
							c0.201-0.065,0.433-0.332,0.629-0.34C96.907,289.887,96.88,289.765,96.805,289.799L96.805,289.799z"/>
					</g>
				</g>
			</g>
			<g>
				<path style="fill:#3C333F;" d="M98.261,157.689c0,0,6.628,0.607,5.983,10.315c-0.695,10.456-9.517,51.206-8.915,59.804
					l7.803,48.73l-15.442,4.46c0,0-11.875-47.506-11.138-56.276c0.736-8.77,1.796-57.99,8.25-64.277
					C91.256,154.159,98.261,157.689,98.261,157.689z"/>
			</g>
		</g>
	</g>
	<g>
		<g>
			<g>
				<rect x="159.273" y="281.941" style="fill:#3D3F4D;" width="385.582" height="11.01"/>
			</g>
			<g>
				<rect x="445.836" y="307.614" style="fill:#3D3F4D;" width="15.888" height="154.558"/>
			</g>
			<g>
				<rect x="242.403" y="307.614" style="fill:#3D3F4D;" width="15.889" height="154.558"/>
			</g>
			<g>
				<rect x="185.196" y="292.952" style="fill:#3D3F4D;" width="333.736" height="23.084"/>
			</g>
			<g>
				<rect x="185.196" y="292.952" style="fill:#282A33;" width="333.736" height="6.246"/>
			</g>
		</g>
		<g>
			<g>
				<polygon style="fill:#1A1A1A;" points="305.764,281.859 243.254,281.859 224.455,230.163 233.062,227.032 249.669,272.7 
					305.764,272.7 				"/>
			</g>
			<radialGradient id="SVGID_1_" cx="232.4789" cy="260.8932" r="63.5632" gradientUnits="userSpaceOnUse">
				<stop  offset="0" style="stop-color:#FFFFFF"/>
				<stop  offset="1" style="stop-color:#FFFFFF;stop-opacity:0"/>
			</radialGradient>
			<polygon style="fill:url(#SVGID_1_);" points="234.761,231.055 285.329,165 319.407,282.48 248.598,269.868 			"/>
		</g>
		<g>
			<rect x="189.378" y="278.33" style="fill:#990240;" width="10.002" height="3.722"/>
			<path style="fill:#D4145A;" d="M196.981,281.044h-5.206c-1.957,0-3.544-1.587-3.544-3.544v-13.667h12.293V277.5
				C200.525,279.457,198.939,281.044,196.981,281.044z"/>
			<g>
				<g>
					<path style="fill:#D4145A;" d="M200.339,267.941c0.49-1.716,2.554-1.737,3.49-0.477c0.736,0.991,0.826,2.404,0.608,3.592
						c-0.184,1.006-0.652,2.298-1.664,2.754c-1.359,0.612-1.874-0.635-2.857-1.237c-0.308-0.188-0.75-0.072-0.926,0.243
						c-1.145,2.047,1.866,3.56,3.593,3.229c2.76-0.528,3.948-3.403,4.021-5.939c0.07-2.411-1.14-5.15-3.766-5.577
						c-2.13-0.347-3.805,1.344-3.408,3.413C199.52,268.415,200.218,268.364,200.339,267.941L200.339,267.941z"/>
				</g>
			</g>
		</g>
	</g>
</g>
</svg>
